<svg xmlns="http://www.w3.org/2000/svg" width="24" height="24" viewBox="0 0 24 24" fill="none">
    <g clip-path="url(#clip0_4624_3869)">
        <path d="M13.9519 11.3307L15.1301 9.33693L18.3056 14.2699L18.3071 15.2165L18.2967 8.70216C18.2892 8.54293 18.2044 8.39724 18.0691 8.31134L12.352 5.03144C12.2183 4.96589 12.0487 4.96659 11.9152 5.03347C11.8972 5.04251 11.8802 5.05229 11.864 5.06297L11.8441 5.07548L6.29472 8.28284L6.27316 8.29257C6.24548 8.30528 6.2175 8.32142 6.19121 8.34019C6.08602 8.41547 6.01612 8.52674 5.99352 8.65157C5.99013 8.67049 5.98765 8.68975 5.98645 8.70917L5.99516 14.0178L8.95302 9.44533C9.32541 8.83901 10.1368 8.64372 10.89 8.65435L11.774 8.67764L6.56535 17.0088L7.17934 17.3614L12.4504 8.68608L14.7803 8.67764L9.52276 17.5719L11.7137 18.8287L11.9754 18.9789C12.0862 19.0238 12.2167 19.026 12.3284 18.9858L18.1258 15.635L17.0174 16.2756L13.9519 11.3307ZM14.4014 17.7876L12.1885 14.3237L13.5393 12.0375L16.4455 16.6061L14.4014 17.7876Z" fill="#070707"/>
        <path d="M12.1885 14.3236L14.4014 17.7875L16.4455 16.606L13.5393 12.0375L12.1885 14.3236Z" fill="#8D8D8D"/>
        <path d="M18.3071 15.2171L18.3056 14.2705L15.1301 9.33752L13.9519 11.3313L17.0174 16.2761L18.1259 15.6356C18.2346 15.5475 18.3003 15.4183 18.3073 15.2788L18.3071 15.2171Z" fill="#8D8D8D"/>
        <path d="M5.00005 16.1093L6.56528 17.0088L11.774 8.67763L10.8899 8.65434C10.1367 8.64371 9.32539 8.839 8.95295 9.44532L5.9951 14.0178L5 15.5427V16.1093H5.00005Z" fill="#F9F9FA"/>
        <path d="M14.7802 8.6781L12.4504 8.68654L7.17932 17.3619L9.0217 18.4199L9.52274 17.5724L14.7802 8.6781Z" fill="#F9F9FA"/>
        <path d="M19.2889 8.66601C19.2695 8.18005 19.0056 7.73516 18.5924 7.47616L12.8003 4.1541C12.3916 3.94878 11.8809 3.94853 11.4714 4.15395C11.423 4.17828 5.83874 7.40844 5.83874 7.40844C5.76148 7.44538 5.68705 7.48942 5.617 7.53937C5.2481 7.80308 5.02322 8.21282 5.00012 8.66303V15.5431L5.99522 14.0182L5.98651 8.70955C5.9877 8.69014 5.99014 8.67107 5.99358 8.6522C6.01603 8.52728 6.08598 8.41585 6.19127 8.34058C6.21756 8.32181 11.8972 5.0429 11.9153 5.03386C12.0488 4.96698 12.2184 4.96628 12.3521 5.03182L18.0692 8.31173C18.2045 8.39763 18.2892 8.54331 18.2968 8.70255V15.2786C18.2898 15.4181 18.2346 15.5473 18.1259 15.6354L17.0174 16.2759L16.4456 16.6065L14.4014 17.788L12.3284 18.9862C12.2167 19.0264 12.0862 19.0242 11.9755 18.9793L9.52276 17.5723L9.02173 18.4198L11.2259 19.6855C11.2988 19.7268 11.3637 19.7635 11.417 19.7933C11.4996 19.8395 11.5558 19.8704 11.5756 19.8799C11.7323 19.9558 11.9577 20 12.1608 20C12.347 20 12.5286 19.9659 12.7005 19.8988L18.7217 16.4209C19.0673 16.1538 19.2706 15.7511 19.2889 15.3148V8.66601Z" fill="#F9F9FA"/>
    </g>
    <defs>
        <clipPath id="clip0_4624_3869">
            <rect width="24" height="24" fill="white"/>
        </clipPath>
    </defs>
</svg>