<svg xmlns="http://www.w3.org/2000/svg" width="24" height="24" viewBox="0 0 24 24" fill="none">
    <g clip-path="url(#clip0_4624_3878)">
        <path d="M8.50098 15.1874C7.78578 15.1874 7.20018 15.0194 6.74418 14.6834C6.29298 14.3426 6.06738 13.853 6.06738 13.2242C6.06738 13.0898 6.08178 12.9314 6.11058 12.7394C6.18738 12.3074 6.29778 11.789 6.44178 11.1794C6.84978 9.52824 7.90578 8.70264 9.60498 8.70264C10.0658 8.70264 10.4834 8.77944 10.8482 8.93784C11.213 9.08664 11.501 9.31704 11.7122 9.62424C11.9234 9.92664 12.029 10.2866 12.029 10.7042C12.029 10.829 12.0146 10.9874 11.9858 11.1794C11.8946 11.7122 11.789 12.2354 11.6594 12.7394C11.4482 13.5602 11.0882 14.1794 10.5698 14.5874C10.0562 14.9906 9.36498 15.1874 8.50098 15.1874ZM8.63058 13.8914C8.96658 13.8914 9.24978 13.7906 9.48498 13.5938C9.72498 13.397 9.89778 13.0946 9.99858 12.6818C10.1378 12.1154 10.2434 11.6258 10.3154 11.2034C10.3394 11.0786 10.3538 10.949 10.3538 10.8146C10.3538 10.2674 10.0706 9.99384 9.49938 9.99384C9.16338 9.99384 8.87538 10.0946 8.63538 10.2914C8.40018 10.4882 8.23218 10.7906 8.13138 11.2034C8.02098 11.6066 7.91538 12.0962 7.80498 12.6818C7.78098 12.8018 7.76658 12.9266 7.76658 13.061C7.76178 13.6178 8.05458 13.8914 8.63058 13.8914Z" fill="#F9F9FA"/>
        <path d="M12.4464 15.1008C12.3792 15.1008 12.3312 15.0816 12.2928 15.0384C12.264 14.9904 12.2544 14.9376 12.264 14.8752L13.5072 9.01918C13.5168 8.95198 13.5504 8.89918 13.608 8.85598C13.6608 8.81278 13.7184 8.79358 13.7808 8.79358H16.176C16.8432 8.79358 17.376 8.93278 17.7792 9.20638C18.1872 9.48478 18.3936 9.88318 18.3936 10.4064C18.3936 10.5552 18.3744 10.7136 18.3408 10.8768C18.192 11.568 17.8896 12.0768 17.4288 12.408C16.9776 12.7392 16.3584 12.9024 15.5712 12.9024H14.3568L13.944 14.8752C13.9296 14.9424 13.9008 14.9952 13.8432 15.0384C13.7904 15.0816 13.7328 15.1008 13.6704 15.1008H12.4464ZM15.6336 11.6592C15.888 11.6592 16.104 11.592 16.2912 11.4528C16.4832 11.3136 16.608 11.1168 16.6704 10.8576C16.6896 10.7568 16.6992 10.6656 16.6992 10.5888C16.6992 10.416 16.6464 10.2816 16.5456 10.1904C16.4448 10.0944 16.2672 10.0464 16.0224 10.0464H14.9424L14.6016 11.6592H15.6336Z" fill="#F9F9FA"/>
    </g>
    <defs>
        <clipPath id="clip0_4624_3878">
            <rect width="24" height="24" fill="white"/>
        </clipPath>
    </defs>
</svg>