<svg xmlns="http://www.w3.org/2000/svg" width="24" height="24" viewBox="0 0 24 24" fill="none">
    <g clip-path="url(#clip0_4624_3882)">
        <path d="M15.3944 15.1554L18.7151 13.1454C18.8908 13.0389 19 12.8407 19 12.6279V8.60721C19 8.39466 18.8908 8.19615 18.7151 8.08972L15.3944 6.07971C15.2188 5.97328 15.0003 5.97359 14.8247 6.07971L11.5041 8.08972C11.3284 8.19615 11.2192 8.39435 11.2192 8.60721V15.7918L8.89071 17.2009L6.56224 15.7918V12.9724L8.89071 11.5632L10.4267 12.4927V10.6016L9.17559 9.84443C9.08926 9.7923 8.99073 9.76484 8.89071 9.76484C8.79069 9.76484 8.69216 9.7923 8.60583 9.84443L5.28488 11.8548C5.10925 11.9612 5 12.1594 5 12.3722V16.3926C5 16.6051 5.10925 16.8036 5.28488 16.9101L8.60553 18.9204C8.78116 19.0265 8.99936 19.0265 9.17529 18.9204L12.4959 16.9104C12.6716 16.804 12.7808 16.6055 12.7808 16.3929V9.20835L12.8228 9.18307L15.1093 7.79915L17.4377 9.20866V12.0277L15.1093 13.4372L13.5756 12.5089V14.4001L14.8244 15.1563C15 15.2624 15.2185 15.2624 15.3941 15.1563L15.3944 15.1554Z" fill="#F9F9FA"/>
    </g>
    <defs>
        <clipPath id="clip0_4624_3882">
            <rect width="24" height="24" fill="white"/>
        </clipPath>
    </defs>
</svg>