<svg fill="none" height="40" viewBox="0 0 40 40" width="40" xmlns="http://www.w3.org/2000/svg"><path d="m20 40c11.0834 0 20-8.9166 20-20s-8.9166-20-20-20-20 8.9166-20 20 8.9166 20 20 20z" fill="#181524"/><g fill="#e1ddf7"><path d="m17.1342 19.8064v-5.2258h-7.0878v-4.5806h19.806v4.6451h-7.0878v5.1613z"/><path clip-rule="evenodd" d="m7 20.3869c0-1.742 5.6967-3.1613 12.7845-3.1613 7.0877 0 12.7844 1.4193 12.7844 3.1613 0 1.7419-5.6967 3.1612-12.7844 3.1612-7.0878 0-12.7845-1.4193-12.7845-3.1612zm24.51-.0001c-.4636-.6452-4.3056-2.6452-11.7246-2.6452-7.4189 0-11.26091 1.9355-11.72459 2.6452.46368.6452 4.30569 1.6129 11.72459 1.6129 7.4852 0 11.261-.9677 11.7246-1.6129z" fill-rule="evenodd"/><path d="m22.765 21.4192v-3.6129c-.9273-.0645-1.921-.1291-2.9146-.1291-.9273 0-1.7885 0-2.6496.0646v3.6128c.7949 0 1.7223.0646 2.6496.0646.9936.0645 1.9873.0645 2.9146 0z"/><path d="m19.7851 23.5482c-.9273 0-1.7885 0-2.6496-.0645v9.6129h5.5642v-9.6774c-.9273.0645-1.921.129-2.9146.129z"/></g></svg>