<svg width="24" height="24" viewBox="0 0 24 24" fill="none" xmlns="http://www.w3.org/2000/svg">
    <path d="M12.3283 6.41964C12.2527 6.29251 12.1417 6.18653 12.007 6.11273C11.8724 6.03892 11.7188 6 11.5624 6C11.406 6 11.2524 6.03892 11.1178 6.11273C10.9831 6.18653 10.8721 6.29251 10.7965 6.41964L5.10899 16.1696C5.03545 16.2934 4.99791 16.4327 5.00009 16.574C5.00227 16.7153 5.04409 16.8536 5.12143 16.9753C5.19876 17.097 5.30893 17.1978 5.44107 17.2679C5.57321 17.338 5.72274 17.3748 5.87491 17.3748H17.2499C17.4021 17.3748 17.5516 17.338 17.6838 17.2679C17.8159 17.1978 17.9261 17.097 18.0034 16.9753C18.0807 16.8536 18.1225 16.7153 18.1248 16.574C18.1269 16.4327 18.0893 16.2934 18.0158 16.1696L12.3283 6.41964Z"
          stroke="#FBC13A" stroke-linecap="round" stroke-linejoin="round"/>
    <path d="M11.5624 13.3122V9.65598" stroke="#FBC13A" stroke-linecap="round" stroke-linejoin="round"/>
    <path d="M11.5624 15.3435C11.4416 15.3435 11.3437 15.2525 11.3437 15.1404C11.3437 15.0282 11.4416 14.9372 11.5624 14.9372"
          stroke="#FBC13A"/>
    <path d="M11.5624 15.3435C11.6832 15.3435 11.7812 15.2525 11.7812 15.1404C11.7812 15.0282 11.6832 14.9372 11.5624 14.9372"
          stroke="#FBC13A"/>
</svg>
