<svg width="14" height="13" viewBox="0 0 14 13" fill="none" xmlns="http://www.w3.org/2000/svg">
    <g clip-path="url(#clip0_2587_7549)">
        <path d="M7.76591 1.23241C7.69025 1.10529 7.5793 0.999308 7.44461 0.925506C7.30991 0.851699 7.15638 0.812775 6.99999 0.812775C6.84354 0.812775 6.69001 0.851699 6.55531 0.925506C6.42062 0.999308 6.30967 1.10529 6.23407 1.23241L0.546555 10.9824C0.473007 11.1061 0.43547 11.2455 0.437651 11.3868C0.439831 11.528 0.481653 11.6664 0.558988 11.788C0.636325 11.9097 0.746493 12.0106 0.878636 12.0807C1.01077 12.1507 1.1603 12.1876 1.31247 12.1876H12.6875C12.8396 12.1876 12.9892 12.1507 13.1213 12.0807C13.2534 12.0106 13.3636 11.9097 13.441 11.788C13.5183 11.6664 13.5601 11.528 13.5623 11.3868C13.5645 11.2455 13.5269 11.1061 13.4534 10.9824L7.76591 1.23241Z" stroke="#FBC13A" stroke-linecap="round" stroke-linejoin="round"/>
        <path d="M7 8.125V4.46875" stroke="#FBC13A" stroke-linecap="round" stroke-linejoin="round"/>
        <path d="M7 10.1563C6.87919 10.1563 6.78125 10.0653 6.78125 9.95313C6.78125 9.84095 6.87919 9.75 7 9.75" stroke="#FBC13A"/>
        <path d="M7 10.1563C7.12081 10.1563 7.21875 10.0653 7.21875 9.95313C7.21875 9.84095 7.12081 9.75 7 9.75" stroke="#FBC13A"/>
    </g>
    <defs>
        <clipPath id="clip0_2587_7549">
            <rect width="14" height="13" fill="white"/>
        </clipPath>
    </defs>
</svg>
