<svg fill="none" height="40" viewBox="0 0 40 40" width="40" xmlns="http://www.w3.org/2000/svg"><path d="m19.4782 38.9565c10.7576 0 19.4783-8.7207 19.4783-19.4783 0-10.75749-8.7207-19.4782-19.4783-19.4782-10.75749 0-19.4782 8.72071-19.4782 19.4782 0 10.7576 8.72071 19.4783 19.4782 19.4783z" fill="#181524"/><path d="m28.0027 27.2395-6.5865-15.924c-.3714-.8233-.9237-1.2249-1.6516-1.2249h-.5824c-.7278 0-1.2801.4016-1.6516 1.2249l-2.8665 6.9379h-2.1687c-.6476.005-1.1747.527-1.1797 1.1797v.015c.005.6477.5321 1.1747 1.1797 1.1799h1.1647l-2.736 6.6115c-.0502.1456-.0803.2961-.0803.4518 0 .3715.1154.6627.3212.8885.2059.2259.5021.3365.8735.3365.246-.0051.482-.0804.6778-.226.2108-.1456.3564-.3564.4719-.5974l3.0121-7.4701h2.0883c.6477-.0049 1.1748-.527 1.1799-1.1796v-.0301c-.0051-.6477-.5322-1.1747-1.1799-1.1799h-1.1144l2.2992-5.7279 6.2652 15.5827c.1155.2409.2611.4516.472.5972.1956.1456.4366.221.6776.226.3715 0 .6627-.1104.8736-.3364.2108-.2259.3212-.5171.3212-.8884.005-.1508-.0201-.3063-.0803-.4469z" fill="#e1ddf7"/></svg>