<svg fill="none" height="40" viewBox="0 0 40 40" width="40" xmlns="http://www.w3.org/2000/svg" xmlns:xlink="http://www.w3.org/1999/xlink"><clipPath id="a"><path d="m0 0h40v40h-40z"/></clipPath><g clip-path="url(#a)"><path d="m20 40c11.046 0 20-8.954 20-20s-8.954-20-20-20-20 8.954-20 20 8.954 20 20 20z" fill="#181524"/><path clip-rule="evenodd" d="m11.5532 26.7062c-.598-.366-.964-1.016-.964-1.716v-3.908c0-.464.378-.84.842-.838.148 0 .294.04.422.114l8.818 5.142c.516.3.834.852.834 1.45v4.048c.002.556-.448 1.008-1.004 1.008-.186 0-.37-.052-.528-.148zm13.1438-7.418c.516.3.832.854.834 1.45v8.216c0 .242-.13.466-.342.584l-1.93 1.086c-.024.014-.05.024-.078.032v-4.562c0-.59-.31-1.138-.818-1.442l-7.744-4.632v-5.15c0-.464.378-.84.842-.838.148 0 .294.04.422.114zm3.8599-6.0681c.518.3.836.854.836 1.452v11.9999c-.002.246-.138.472-.354.59l-1.83.988v-8.354c0-.59-.31-1.136-.814-1.44l-7.916-4.7479v-4.88404c0-.148.04-.294.112-.422.234-.4.748-.536 1.148-.304z" fill="#e1ddf7" fill-rule="evenodd"/></g></svg>