<svg fill="none" height="40" viewBox="0 0 40 40" width="40" xmlns="http://www.w3.org/2000/svg" xmlns:xlink="http://www.w3.org/1999/xlink"><clipPath id="a"><path d="m0 0h40v40h-40z"/></clipPath><g clip-path="url(#a)"><path d="m20 0c11.0467 0 20 8.95508 20 20 0 11.0467-8.9533 20-20 20-11.04492 0-20-8.9542-20-20 0-11.04492 8.95508-20 20-20z" fill="#181524"/><path clip-rule="evenodd" d="m10.475 31.025v.0748l-.0036.0027v.0125h8.6752c.982.0135 1.9602-.0647 2.925-.2375 1.0162-.199 2.0062-.5122 2.9504-.937.4093-.1895.802-.4187 1.1983-.6499.1003-.0585.2008-.1171.302-.1755.4662-.332.9125-.692 1.3373-1.0745 1.1629-1.0511 2.0629-2.3625 2.6254-3.825.0378-.1638.198-.2691.3626-.2376h2.3625c.1882 0 .2504-.063.2504-.2754v-1.513c.0125-.1448.0125-.2916 0-.4365 0-.0378.0096-.0756.0193-.1133.0195-.0752.0387-.1502-.0193-.225h-1.9739c-.2385 0-.2385-.0253-.2385-.2377.0685-.7613.0685-1.5255 0-2.287-.0125-.225.0379-.225.2125-.225h1.7252c.2008 0 .2755-.0503.2755-.2501v-2.0502c-.0062-.1358-.0093-.2047-.0453-.2396-.0372-.0358-.1089-.0358-.2544-.0358h-2.2375c-.1745.0297-.342-.0882-.3735-.2628-.2565-.6705-.5831-1.3122-.9765-1.9125-.396-.5922-.8423-1.1485-1.3373-1.6624-.658-.657-1.3968-1.2276-2.1997-1.7001-1.2105-.70287-2.5345-1.19519-3.9123-1.44989-.6687-.1233-1.3447-.198-2.025-.225h-9.3745c-.2503 0-.2503.0504-.2503.2502v6.73749c0 .2376-.0504.2376-.2376.2376h-2.68738c-.1998 0-.1998.0369-.1998.1746v2.1995c0 .1999.0621.1999.2124.1999h2.71258c.1998 0 .1998.037.1998.1871v2.35c0 .2124-.063.2124-.225.2124h-2.89978v2.3751c0 .1999.0621.1999.2124.1999h2.71258c.1998 0 .1998.0243.1998.1871v2.9377.9873zm17.2631-15.1372c.0217.0558.0217.1179 0 .1746h.0604c-.0252.0747-.1504.0999-.1504.0999h-14.4244c-.2376 0-.2376-.0504-.2376-.2376v-4.4371c0-.1629.0252-.2376.2124-.2376h6.7123c.7145-.0063 1.4273.0684 2.1248.225 1.3825.3276 2.6687.9792 3.7504 1.9.216.1611.4086.351.5751.5625.3529.3501.6624.7398.9252 1.1628.1747.2475.325.5112.4518.7875zm.5984 5.5242h-7.5997-7.4502c-.152 0-.2269 0-.2639-.0374-.0358-.0365-.0358-.1081-.0358-.2496v-2.2249c0-.1755.0504-.2376.2376-.2376h15.1246c.1629 0 .2377.0621.2377.2125.062.774.062 1.5515 0 2.3246-.0118.2124-.0883.2124-.2503.2124zm-.5985 2.6001c-.2124-.0233-.4265-.0233-.639 0h-13.8619c-.1872 0-.2502 0-.2502.2502v4.3382c0 .1996 0 .2501.2502.2501h6.3999c.306.0234.612.0019.9118-.0621.9287-.0665 1.8423-.2682 2.7135-.6004.3168-.1096.6228-.2528.9117-.4246h.0873c1.5003-.7804 2.7188-2.0062 3.4875-3.511 0 0 .0873-.189-.0108-.2385z" fill="#e1ddf7" fill-rule="evenodd"/></g></svg>