<svg fill="none" height="41" viewBox="0 0 41 41" width="41" xmlns="http://www.w3.org/2000/svg"><path d="m20.2896 40.5797c11.2439 0 20.2897-9.0458 20.2897-20.2898 0-11.24407-9.0458-20.2899-20.2897-20.2899-11.24387 0-20.2896 9.04583-20.2896 20.2899 0 11.244 9.04573 20.2898 20.2896 20.2898z" fill="#181524"/><path d="m7.84238 26.7099-.2139-.4139h3.59952l.0877.1276c1.1453 1.6975 2.7451 3.0273 4.6108 3.8328 1.8657.8054 3.9196 1.0529 5.9194.7132 5.3991-.9324 9.2162-5.9232 8.7861-11.4481l-6.4298-.0116 1.8757 5.3855-2.2956 3.2033-4.1226-11.8581 13.5646.0233.0523.2051c.1573.5237.2801 1.0575.3676 1.5977.1301.7693.1939 1.5487.1906 2.3292 0 6.67-4.7447 12.5933-11.4494 13.7423-.7704.1245-1.5492.1892-2.3293.1934-2.5321.0026-5.015-.7087-7.1717-2.0545-2.1568-1.3459-3.90236-3.2733-5.04202-5.5672zm2.30742-2.2287h-3.21437l-.05738-.205c-.14586-.5169-.25909-1.0428-.339-1.5744-1.26692-7.5755 3.78305-14.78318 11.25355-16.06002 2.8822-.50544 5.8481-.06148 8.4635 1.26686 2.6154 1.32835 4.7429 3.47126 6.071 6.11506l.2142.414h-3.6211l-.0928-.1277c-1.143-1.695-2.7403-3.0227-4.6033-3.8262-1.863-.80347-3.9138-1.04918-5.91-.70807-5.3995.93227-9.22831 5.92327-8.79821 11.43657l6.45341.0115-1.8807-5.3856 2.311-3.2033 4.1122 11.8583z" fill="#e1ddf7"/></svg>