<svg fill="none" height="40" viewBox="0 0 40 40" width="40" xmlns="http://www.w3.org/2000/svg" xmlns:xlink="http://www.w3.org/1999/xlink"><clipPath id="a"><path d="m0 0h40v40h-40z"/></clipPath><g clip-path="url(#a)"><path d="m20 0c11.0466 0 20 8.95509 20 20 0 11.0466-8.9534 20-20 20-11.04491 0-20-8.9543-20-20 0-11.04491 8.95509-20 20-20z" fill="#181524"/><g fill="#e1ddf7"><path d="m19.9924 6.66711-.1821.61855v17.94704l.1821.1817 8.3307-4.9243z"/><path d="m19.9882 6.66711-8.3309 13.82299 8.3309 4.9243v-8.711z"/><path d="m19.9854 26.9908-.1026.1251v6.393l.1026.2997 8.3358-11.7396z"/><path d="m19.9882 33.8086v-6.8178l-8.3309-4.9218z"/><path d="m19.9889 25.4144 8.3306-4.9243-8.3306-3.7867z"/><path d="m11.6573 20.4901 8.3309 4.9243v-8.711z"/></g></g></svg>