<svg fill="none" height="40" viewBox="0 0 40 40" width="40" xmlns="http://www.w3.org/2000/svg" xmlns:xlink="http://www.w3.org/1999/xlink"><clipPath id="a"><path d="m0 0h40v40h-40z"/></clipPath><g clip-path="url(#a)"><path d="m20 0c11.0466 0 20 8.95509 20 20 0 11.0466-8.9534 20-20 20-11.04491 0-20-8.9543-20-20 0-11.04491 8.95509-20 20-20z" fill="#181524"/><g fill="#e1ddf7"><path clip-rule="evenodd" d="m20.0004 5 7.0709 11.0701-7.0713 4.1218-7.0703-4.1219zm-4.9062 10.5465 4.9062-7.68121 4.9062 7.68131-4.9065 2.8599z" fill-rule="evenodd"/><path d="m19.9933 22.6249-8.2024-4.7817-.224.3507c-2.52624 3.9552-1.96204 9.1352 1.3565 12.4538 3.9052 3.9051 10.2367 3.9051 14.1417 0 3.3185-3.3186 3.8828-8.4986 1.3566-12.4538l-.2241-.3508z"/></g></g></svg>