<svg fill="none" height="40" viewBox="0 0 40 40" width="40" xmlns="http://www.w3.org/2000/svg"><path d="m19.4782 38.9565c10.7943 0 19.4783-8.684 19.4783-19.4783 0-10.7942-8.684-19.4782-19.4783-19.4782-10.7942 0-19.4782 8.684-19.4782 19.4782 0 10.7943 8.684 19.4783 19.4782 19.4783z" fill="#181524"/><g fill="#e1ddf7"><path d="m24.8347 22.562c0-2.8404-1.7043-3.8144-5.1131-4.2201-2.4347-.3248-2.9218-.9739-2.9218-2.1103s.8117-1.8666 2.4349-1.8666c1.4608 0 2.2725.4869 2.6782 1.7042.0812.2436.3247.4058.5682.4058h1.2984c.3246 0 .5682-.2434.5682-.5679v-.0813c-.3247-1.7855-1.7856-3.1652-3.6522-3.3274v-1.9479c0-.3247-.2435-.56814-.6491-.64938h-1.2175c-.3248 0-.5681.24348-.6494.64938v1.8666c-2.4348.3247-3.9767 1.9479-3.9767 3.9769 0 2.6783 1.6232 3.7332 5.0319 4.1391 2.2725.4057 3.0029.8928 3.0029 2.1913 0 1.2986-1.1363 2.1914-2.6783 2.1914-2.1102 0-2.8406-.893-3.0841-2.1102-.0811-.3247-.3245-.4871-.568-.4871h-1.3799c-.3245 0-.5679.2435-.5679.5682v.0813c.3245 2.0288 1.6231 3.4897 4.3014 3.8956v1.9479c0 .3245.2433.5678.6491.6491h1.2174c.3247 0 .5682-.2435.6495-.6491v-1.9479c2.4347-.4059 4.0579-2.1104 4.0579-4.3016z"/><path clip-rule="evenodd" d="m8.11737 15.5014c-2.35375 6.2495.89268 13.3103 7.22313 15.5826.2435.1624.4869.4871.4869.7304v1.1365c0 .1622 0 .2434-.0812.3245-.081.3246-.4057.4869-.7304.3246-4.5449-1.4608-8.03479-4.9507-9.49567-9.4957-2.43478-7.71 1.78559-15.90722 9.49567-18.342.0812-.08103.2435-.08103.3247-.08103.3247.08103.4869.32452.4869.64922v1.13616c0 .40594-.1622.64941-.4869.81166-3.3275 1.2174-6.00574 3.81439-7.22313 7.22309zm15.09563-9.41462c.081-.32471.4058-.48696.7304-.32471 4.4637 1.46088 8.0349 4.95083 9.4957 9.57693 2.4347 7.71-1.7856 15.9073-9.4957 18.342-.0811.0811-.2435.0811-.3246.0811-.3248-.0811-.4871-.3245-.4871-.6493v-1.1361c0-.406.1623-.6495.4871-.8117 3.3273-1.2173 6.0057-3.8144 7.223-7.2231 2.3538-6.2494-.8926-13.3103-7.223-15.58259-.2435-.16245-.4871-.48696-.4871-.81165v-1.13618c0-.16245 0-.24347.0813-.3247z" fill-rule="evenodd"/></g></svg>