<svg width="40" height="40" viewBox="0 0 40 40" fill="none" xmlns="http://www.w3.org/2000/svg">
<g clip-path="url(#clip0_3690_18454)">
<path d="M19.247 38.5063C29.7422 38.5063 38.2502 29.9983 38.2502 19.5031C38.2502 9.00801 29.7422 0.5 19.247 0.5C8.75191 0.5 0.243896 9.00801 0.243896 19.5031C0.243896 29.9983 8.75191 38.5063 19.247 38.5063Z" fill="#161616"/>
<path d="M27.5636 27.0751L21.1378 11.5395C20.7754 10.7363 20.2366 10.3445 19.5265 10.3445H18.9583C18.2482 10.3445 17.7094 10.7363 17.3469 11.5395L14.5504 18.3082H12.4346C11.8028 18.3131 11.2885 18.8223 11.2836 19.4591V19.4737C11.2885 20.1057 11.8028 20.6198 12.4346 20.6249H13.5709L10.9016 27.0751C10.8526 27.2172 10.8232 27.364 10.8232 27.5159C10.8232 27.8783 10.9358 28.1624 11.1366 28.3827C11.3375 28.6031 11.6265 28.711 11.9888 28.711C12.2288 28.706 12.459 28.6326 12.6501 28.4905C12.8557 28.3485 12.9978 28.1428 13.1105 27.9077L16.0491 20.6198H18.0865C18.7184 20.615 19.2326 20.1057 19.2376 19.469V19.4396C19.2326 18.8077 18.7184 18.2936 18.0865 18.2885H16.9992L19.2424 12.7003L25.3548 27.9029C25.4674 28.1379 25.6095 28.3435 25.8152 28.4856C26.0061 28.6276 26.2412 28.7012 26.4763 28.706C26.8388 28.706 27.1229 28.5983 27.3286 28.3778C27.5343 28.1575 27.642 27.8734 27.642 27.5111C27.6469 27.364 27.6224 27.2123 27.5636 27.0751Z" fill="#F9F9FA"/>
</g>
<defs>
<clipPath id="clip0_3690_18454">
<rect width="39.0244" height="39.0244" fill="white" transform="translate(0.243896 0.5)"/>
</clipPath>
</defs>
</svg>
