<svg width="40" height="40" viewBox="0 0 40 40" fill="none" xmlns="http://www.w3.org/2000/svg">
<g clip-path="url(#clip0_3690_18473)">
<mask id="mask0_3690_18473" style="mask-type:luminance" maskUnits="userSpaceOnUse" x="0" y="0" width="40" height="40">
<path d="M0.731689 0.5H39.7561V39.5244H0.731689V0.5Z" fill="white"/>
</mask>
<g mask="url(#mask0_3690_18473)">
<path d="M20.2439 39.5244C31.0205 39.5244 39.7561 30.7888 39.7561 20.0122C39.7561 9.23561 31.0205 0.5 20.2439 0.5C9.4673 0.5 0.731689 9.23561 0.731689 20.0122C0.731689 30.7888 9.4673 39.5244 20.2439 39.5244Z" fill="#161616"/>
<path fill-rule="evenodd" clip-rule="evenodd" d="M12.0031 26.5548C11.4197 26.1977 11.0626 25.5636 11.0626 24.8807V21.068C11.0626 20.6153 11.4314 20.2485 11.8841 20.2504C12.0285 20.2504 12.1709 20.2894 12.2958 20.3616L20.8987 25.3782C21.4021 25.6709 21.7124 26.2094 21.7124 26.7929V30.7421C21.7143 31.2846 21.2753 31.7255 20.7329 31.7255C20.5514 31.7255 20.3719 31.6748 20.2177 31.5812L12.0031 26.5548ZM24.8263 19.3177C25.3297 19.6104 25.638 20.1509 25.64 20.7324V28.748C25.64 28.9841 25.5132 29.2026 25.3063 29.3177L23.4234 30.3773C23.4 30.3909 23.3746 30.4007 23.3473 30.4085V25.9577C23.3473 25.3821 23.0449 24.8475 22.5493 24.5509L14.9941 20.0319V15.0075C14.9941 14.5548 15.3629 14.188 15.8156 14.1899C15.96 14.1899 16.1024 14.229 16.2273 14.3012L24.8263 19.3177ZM28.5921 13.3976C29.0975 13.6903 29.4077 14.2308 29.4077 14.8142V26.5215C29.4057 26.7615 29.2731 26.9819 29.0623 27.0971L27.277 28.061V19.9107C27.277 19.3351 26.9745 18.8024 26.4828 18.5058L18.7599 13.8737V9.10883C18.7599 8.96443 18.7989 8.82199 18.8692 8.69712C19.0975 8.30687 19.5989 8.17419 19.9892 8.40053L28.5921 13.3976Z" fill="#F9F9FA"/>
</g>
</g>
<defs>
<clipPath id="clip0_3690_18473">
<rect width="39.0244" height="39.0244" fill="white" transform="translate(0.731689 0.5)"/>
</clipPath>
</defs>
</svg>
