<svg width="41" height="41" viewBox="0 0 41 41" fill="none" xmlns="http://www.w3.org/2000/svg">
<g clip-path="url(#clip0_3690_18470)">
<path d="M20.0873 40.09C31.057 40.09 39.8822 31.2648 39.8822 20.295C39.8822 9.3252 31.057 0.5 20.0873 0.5C9.11771 0.5 0.292603 9.3252 0.292603 20.295C0.292603 31.2648 9.11771 40.09 20.0873 40.09Z" fill="#161616"/>
<path d="M7.94366 26.5584L7.73498 26.1546H11.2467L11.3323 26.2791C12.4496 27.9352 14.0104 29.2326 15.8306 30.0184C17.6508 30.8042 19.6546 31.0457 21.6056 30.7142C26.8731 29.8046 30.597 24.9355 30.1774 19.5454L23.9045 19.534L25.7344 24.7882L23.4948 27.9134L19.4728 16.3445L32.7065 16.3672L32.7575 16.5673C32.911 17.0782 33.0308 17.599 33.1162 18.126C33.2431 18.8766 33.3053 19.637 33.3021 20.3984C33.3021 26.9058 28.6731 32.6846 22.132 33.8056C21.3804 33.927 20.6206 33.9901 19.8595 33.9942C17.3891 33.9968 14.9668 33.3028 12.8627 31.9899C10.7585 30.6768 9.05553 28.7964 7.94366 26.5584ZM10.1948 24.3841H7.05884L7.00285 24.1841C6.86055 23.6798 6.75008 23.1667 6.67212 22.6481C5.4361 15.2574 10.3629 8.22548 17.6512 6.97978C20.4631 6.48667 23.3567 6.9198 25.9083 8.21574C28.4599 9.51169 30.5355 11.6023 31.8312 14.1817L32.0402 14.5856H28.5074L28.4169 14.461C27.3017 12.8073 25.7434 11.512 23.9258 10.7281C22.1083 9.94422 20.1075 9.7045 18.16 10.0373C12.8922 10.9468 9.15675 15.8161 9.57636 21.1949L15.8724 21.2061L14.0375 15.9519L16.2922 12.8267L20.3041 24.3958L10.1948 24.3841Z" fill="#F9F9FA"/>
</g>
<defs>
<clipPath id="clip0_3690_18470">
<rect width="40" height="40" fill="white" transform="translate(0.292603 0.5)"/>
</clipPath>
</defs>
</svg>
