<svg width="40" height="40" viewBox="0 0 40 40" fill="none" xmlns="http://www.w3.org/2000/svg">
<g clip-path="url(#clip0_3690_18480)">
<mask id="mask0_3690_18480" style="mask-type:luminance" maskUnits="userSpaceOnUse" x="0" y="0" width="40" height="40">
<path d="M0.780518 0.5H39.8049V39.5244H0.780518V0.5Z" fill="white"/>
</mask>
<g mask="url(#mask0_3690_18480)">
<path d="M20.2927 0.5C31.0699 0.5 39.8049 9.23667 39.8049 20.0122C39.8049 30.7894 31.0699 39.5244 20.2927 39.5244C9.51719 39.5244 0.780518 30.7885 0.780518 20.0122C0.780518 9.23667 9.51719 0.5 20.2927 0.5Z" fill="#161616"/>
<path fill-rule="evenodd" clip-rule="evenodd" d="M20.2931 5.37805L27.1916 16.1781L20.2928 20.1994L13.3949 16.1781L20.2931 5.37805ZM15.5066 15.6673L20.2931 8.17346L25.0797 15.6674L20.2928 18.4576L15.5066 15.6673Z" fill="#F9F9FA"/>
<path d="M20.2862 22.5731L12.2838 17.908L12.0653 18.2501C9.60068 22.1089 10.1511 27.1625 13.3887 30.4002C17.1987 34.21 23.3757 34.21 27.1855 30.4002C30.4231 27.1625 30.9736 22.1089 28.509 18.2501L28.2904 17.9079L20.2862 22.5731Z" fill="#F9F9FA"/>
</g>
</g>
<defs>
<clipPath id="clip0_3690_18480">
<rect width="39.0244" height="39.0244" fill="white" transform="translate(0.780518 0.5)"/>
</clipPath>
</defs>
</svg>
