<svg width="40" height="40" viewBox="0 0 40 40" fill="none" xmlns="http://www.w3.org/2000/svg">
<g clip-path="url(#clip0_3690_18457)">
<mask id="mask0_3690_18457" style="mask-type:luminance" maskUnits="userSpaceOnUse" x="0" y="0" width="40" height="40">
<path d="M0.195068 0.5H39.2195V39.5244H0.195068V0.5Z" fill="white"/>
</mask>
<g mask="url(#mask0_3690_18457)">
<path d="M19.7073 0.5C30.4844 0.5 39.2195 9.23667 39.2195 20.0122C39.2195 30.7894 30.4844 39.5244 19.7073 39.5244C8.93174 39.5244 0.195068 30.7885 0.195068 20.0122C0.195068 9.23667 8.93174 0.5 19.7073 0.5Z" fill="#161616"/>
<path d="M19.6999 7.00452L19.5222 7.60798V25.1173L19.6999 25.2946L27.8274 20.4904L19.6999 7.00452Z" fill="#F9F9FA"/>
<path d="M19.6958 7.00452L11.5681 20.4904L19.6958 25.2946V16.796V7.00452Z" fill="#F9F9FA"/>
<path d="M19.6931 26.8325L19.593 26.9546V33.1916L19.6931 33.484L27.8256 22.0308L19.6931 26.8325Z" fill="#F9F9FA"/>
<path d="M19.6958 33.484V26.8325L11.5681 22.0308L19.6958 33.484Z" fill="#F9F9FA"/>
<path d="M19.6965 25.2946L27.8239 20.4904L19.6965 16.796V25.2946Z" fill="#F9F9FA"/>
<path d="M11.5681 20.4904L19.6958 25.2946V16.796L11.5681 20.4904Z" fill="#F9F9FA"/>
</g>
</g>
<defs>
<clipPath id="clip0_3690_18457">
<rect width="39.0244" height="39.0244" fill="white" transform="translate(0.195068 0.5)"/>
</clipPath>
</defs>
</svg>
