<svg width="40" height="40" viewBox="0 0 40 40" fill="none" xmlns="http://www.w3.org/2000/svg">
<g clip-path="url(#clip0_3690_18489)">
<path d="M20.1949 39.5244C31.0078 39.5244 39.7069 30.8253 39.7069 20.0122C39.7069 9.19912 31.0078 0.5 20.1949 0.5C9.38189 0.5 0.682861 9.19912 0.682861 20.0122C0.682861 30.8253 9.38189 39.5244 20.1949 39.5244Z" fill="#161616"/>
<path d="M19.7205 9.28052L19.6301 9.28616L19.5492 9.30053L19.4785 9.32109L19.4176 9.35125L19.3669 9.38676L19.3272 9.4217L19.2908 9.46707L19.2606 9.50906L19.2257 9.59388L19.2043 9.66518L19.1947 9.73564H18.9166L18.7444 9.78185L18.6023 9.83793L18.4913 9.90302L18.4011 9.97911L18.3289 10.0592L18.2828 10.14L18.2486 10.2218L18.2281 10.3074L18.2227 10.3883V10.4644L18.2433 10.596L18.2686 10.6872L18.2828 10.7175L18.6333 10.5255L18.7539 10.5207L18.8807 10.5309L19.0164 10.5461L19.0726 10.5356H19.1186L19.2105 10.5461L19.286 10.581L19.3517 10.6214L19.4072 10.672L19.4421 10.7126L19.4785 10.7529L19.5286 10.7832L19.5594 10.8189L19.5681 10.8648L19.5737 10.9195L19.5594 10.9806L19.5388 11.0463L19.4731 11.1827L19.3931 11.3095L19.3162 11.4214L19.2305 11.5268L19.5125 11.7401L19.5492 11.7553L19.5842 11.7655L19.6704 11.7751L19.7569 11.7655L19.8426 11.7449L19.979 11.6942L20.0399 11.6688L20.0805 11.619L20.1207 11.5823L20.1661 11.5587L20.2168 11.5476H20.2676L20.3191 11.5521L20.415 11.5879L20.5006 11.6339L20.5657 11.6846L20.6314 11.7401L20.6821 11.7903L20.7331 11.8306L20.7799 11.8616L20.8194 11.8813L20.8599 11.8965L20.8994 11.9019L20.9653 11.8923L21.0161 11.8709L21.0571 11.841L21.0859 11.8109L21.138 11.7655L21.1738 11.7148L21.2293 11.6133L21.2547 11.5268L21.2643 11.4921V9.94815L21.2595 9.8419L21.2438 9.74609L21.2184 9.66521L21.1883 9.58912L21.1485 9.52797L21.1074 9.47245L21.062 9.42737L21.0161 9.38678L20.9255 9.33127L20.8495 9.30055L20.7734 9.28054L19.7205 9.28052ZM16.2143 9.99407L16.0421 9.99943L15.8859 10.0194L15.7383 10.0496L15.6115 10.0845L15.4965 10.1257L15.3981 10.166L15.242 10.2477L15.1516 10.3072L15.1208 10.3325L14.9892 10.4247L14.8416 10.5354L14.6855 10.6617L14.5246 10.8091L14.1652 11.1326L13.7792 11.5069L13.3805 11.912L12.9647 12.3418L12.1402 13.2284L11.3816 14.0727L10.7486 14.7862L10.1605 15.4642L10.2222 15.4944L10.2777 15.5197L10.3341 15.5355L10.395 15.5403H10.4499L10.5099 15.5355L10.6266 15.5045L10.7385 15.4547L10.8501 15.3881L10.9564 15.3129L11.0581 15.2216L11.1483 15.1303L11.2348 15.0385L11.376 14.8671L11.4664 14.7402L11.4971 14.6904L11.5837 14.776L11.6645 14.8369L11.7454 14.8727L11.8166 14.8924H11.8874L11.9579 14.8775L12.019 14.853L12.0737 14.8163L12.1245 14.776L12.1712 14.7354L12.2473 14.645L12.3068 14.5483L12.4327 14.3106L12.5598 14.0775L12.6914 13.8498L12.8278 13.6333L12.9647 13.42L13.1068 13.218L13.3897 12.8279L13.6729 12.4686L13.9567 12.1395L14.236 11.8408L14.4992 11.5728L14.7511 11.335L14.9788 11.1278L15.1865 10.9512L15.368 10.8043L15.6228 10.611L15.7177 10.5459L15.9057 10.4802L16.0618 10.4501L16.1889 10.4453L16.2445 10.4549L16.2903 10.4642L16.3346 10.4847L16.3713 10.5056L16.4259 10.5603L16.4671 10.6268L16.4925 10.702L16.5077 10.7829V10.8646L16.4925 11.0216L16.4671 11.1326L16.4569 11.178L16.36 11.2493L16.2904 11.3096L16.2445 11.3705L16.2143 11.426L16.1991 11.4758V11.5269L16.2086 11.568L16.2236 11.603L16.2554 11.6337L16.2791 11.6638L16.3459 11.7044L16.4219 11.7399L16.5129 11.8304L16.6747 11.9685L17.1045 12.2968L17.6867 12.7226L17.7374 12.7725L17.7873 12.8079L17.8389 12.8328L17.884 12.8485L17.9293 12.8582H17.9753L18.0553 12.8485L18.117 12.8232L18.1678 12.7922L18.2131 12.7564L18.2227 12.6558L18.2433 12.5394L18.2774 12.418L18.3194 12.2968L18.3898 12.0992L18.4208 12.0184L18.3194 12.0634L18.2179 12.0945L18.1218 12.1151L18.037 12.1246L17.9085 12.1294L17.8586 12.1246L17.7516 12.119L17.6566 12.104L17.5652 12.0787L17.4844 12.0485L17.4091 12.0136L17.3423 11.9733L17.2308 11.8811L17.1499 11.7901L17.0935 11.7098L17.0538 11.6337L16.9983 11.5925L16.9579 11.5585L16.9326 11.5173L16.9121 11.4758L16.9024 11.4412V11.4063L16.9174 11.3451L16.9428 11.2896L16.9785 11.2493L17.0183 11.2135L17.1459 11.0771L17.2409 10.9559L17.3077 10.8392L17.3472 10.733L17.3672 10.6315V10.5459L17.3527 10.4642L17.3218 10.3881L17.2868 10.3278L17.2465 10.2723L17.2014 10.2272L17.1552 10.1914L17.0847 10.1407L17.0538 10.121L16.8207 10.0598L16.6035 10.0195L16.4059 9.99949L16.2143 9.99407ZM23.4699 9.99435L23.3296 10.0039L23.2076 10.0245L23.1115 10.0499L23.03 10.08L22.9745 10.1158L22.93 10.146L22.8981 10.1713L22.8784 10.1919L22.631 10.2576L22.4337 10.3283L22.3576 10.3686L22.2869 10.4092L22.2306 10.4495L22.1799 10.4901L22.1396 10.5352L22.1142 10.5763L22.0896 10.6217L22.0736 10.6668L22.0688 10.7533L22.0784 10.839L22.1085 10.9198L22.1545 10.9959L22.2046 11.0664L22.2567 11.1275L22.3472 11.2137L22.3878 11.2487L22.4534 11.3702L22.494 11.4708L22.5089 11.5581L22.5034 11.6285L22.4836 11.6792L22.4534 11.7244L22.4075 11.7546L22.3528 11.7751L22.2973 11.7855L22.237 11.7952L22.119 11.7903L22.0023 11.7753L21.8064 11.761L21.6433 11.7706L21.5114 11.8007L21.4068 11.8362L21.3251 11.876L21.2687 11.9123L21.2293 11.952L21.1428 12.0075L21.0667 12.0527L20.9858 12.0836L20.9154 12.1042L20.8494 12.1147H20.7844L20.7235 12.109L20.6727 12.0986L20.5814 12.0687L20.5101 12.0281L20.4546 11.9831L20.3895 11.9219L20.327 11.887L20.2675 11.8712H20.2128L20.1714 11.8816L20.1359 11.8965L20.1057 11.9171L20.024 11.9878L19.9335 12.0439L19.8377 12.0836L19.7504 12.1194L19.6052 12.1502L19.5491 12.1597L19.453 12.0639L19.362 11.9932L19.2803 11.9472L19.2043 11.9219L19.1343 11.9123L19.0726 11.9219L19.0115 11.9425L18.9607 11.9726L18.9162 12.0075L18.8807 12.0527L18.8204 12.1344L18.7846 12.2057L18.7745 12.2305L18.6477 12.4435L18.5516 12.6402L18.4859 12.8273L18.4453 13.0004L18.4312 13.1622L18.4352 13.3087L18.4518 13.4403L18.4859 13.5618L18.5279 13.668L18.5716 13.7647L18.6183 13.8399L18.6634 13.9059L18.7443 13.9915L18.7744 14.0223L20.2128 16.0975L20.2824 15.6415L20.2523 15.4187L20.2478 15.2214L20.2675 15.0548L20.3024 14.9074L20.3484 14.7868L20.4095 14.6854L20.48 14.5996L20.5504 14.5329L20.6259 14.4822L20.7029 14.4428L20.7795 14.4117L20.8446 14.3968L20.9461 14.3768H20.981L21.1025 14.3667H21.218L21.3364 14.3816L21.4457 14.4013L21.563 14.4362L21.674 14.4777L21.7803 14.5284L21.8921 14.5893L21.9927 14.6496L22.0998 14.7217L22.2973 14.8778L22.4788 15.0435L22.6516 15.2213L22.8071 15.4045L22.9491 15.5755L23.1774 15.8952L23.3248 16.1172L23.3747 16.2029L23.4296 16.29L23.4866 16.3551L23.5365 16.4162L23.588 16.4621L23.6785 16.5168L23.7554 16.547H23.8149L23.86 16.5374L23.9013 16.5168L24.2962 16.4359L24.6608 16.3709L25.0002 16.3201L25.3126 16.2837L25.6021 16.2584L25.8597 16.2488L26.0922 16.244L26.2999 16.2488L26.6392 16.2685L26.8762 16.2995L27.019 16.3297L27.0633 16.3449L27.1633 16.3345L27.2521 16.3201L27.3164 16.2995L27.3662 16.279L27.4082 16.2536L27.4375 16.2282L27.4544 16.199L27.4632 16.1736L27.4583 16.1172L27.4423 16.0712L27.4138 16.0259L26.219 14.0938L26.1595 13.9723L26.1023 13.8748L26.0406 13.8043L25.985 13.7536L25.9304 13.7282L25.8806 13.7139H25.8289L25.7836 13.7282L25.7424 13.7488L25.7027 13.779L25.6409 13.8398L25.5863 13.9159L23.6181 15.287L23.5262 15.3631L23.4398 15.409L23.3589 15.4392L23.2797 15.4496L23.2027 15.4439L23.1367 15.4242L23.0711 15.3932L23.0108 15.3529L22.9601 15.3123L22.9133 15.2672L22.8372 15.1759L22.7778 15.0801L22.7166 14.9381L22.6611 14.8223L22.6095 14.7312L22.5597 14.6552L22.5146 14.5996L22.4692 14.5537L22.4289 14.5283L22.3923 14.5122L22.363 14.5027H22.3323L22.2869 14.5188L22.2567 14.5376L22.2466 14.548L22.1544 14.5083L22.0687 14.468L21.927 14.3767L21.816 14.2792L21.7351 14.1896L21.6739 14.1135L21.6384 14.0475L21.613 13.9875L21.5471 13.8804L21.4972 13.7843L21.4623 13.7034L21.4417 13.6273L21.4361 13.5617L21.4417 13.5054L21.4559 13.4554L21.4766 13.4149L21.5026 13.3793L21.528 13.3492L21.5877 13.3135L21.6485 13.2832L21.9165 13.086L22.1544 12.8781L22.3686 12.6768L22.5492 12.4691L22.711 12.266L22.849 12.0639L22.9649 11.8759L23.0615 11.6945L23.1416 11.5263L23.2028 11.3757L23.2885 11.1218L23.3295 10.9552L23.3392 10.895L23.3693 10.7881L23.4056 10.7078L23.4445 10.647L23.4865 10.601L23.5263 10.5717L23.5578 10.5549L23.5826 10.5461L23.7444 10.5098L23.887 10.49L24.0129 10.4844L24.1226 10.4953L24.2153 10.5153L24.2962 10.5461L24.3612 10.5858L24.4173 10.6264L24.4627 10.6723L24.4982 10.7174L24.5436 10.8087L24.5642 10.869L24.5698 10.895L28.9965 17.8528L29.0585 17.9543L29.1131 18.025L29.1639 18.0805L29.2098 18.1112L29.2501 18.1265H29.2842L29.3095 18.116L29.3366 18.0954L29.3772 18.0352L29.4026 17.9695L29.4166 17.8892L29.3811 17.757L29.365 17.6705L29.3724 17.6158L29.3771 17.5997L29.3913 17.5896L29.4214 17.5945L29.4626 17.6251L29.5127 17.6657L29.5683 17.726L29.6911 17.8677L29.7965 18.0146L29.9076 18.1724L29.9591 18.2888L30.0089 18.3745L30.0487 18.4291L30.0907 18.4658L30.1248 18.4801H30.1564L30.1804 18.4592L30.2065 18.4348L30.246 18.3539L30.2769 18.2682L30.2975 18.1724L30.3127 18.0504V17.9185L30.2927 17.7869L30.2626 17.6553L30.2223 17.5237L30.1708 17.3921L30.1104 17.2661L30.0487 17.1446L29.9225 16.9229L29.8115 16.7445L29.7006 16.5881L29.5389 16.3201L29.4326 16.1172L29.3724 15.9704L29.351 15.8746V15.8444L29.3606 15.8238L29.3771 15.8143H29.4025L29.4626 15.834L29.5389 15.8785L29.6291 15.9402L29.7266 16.0211L29.9171 16.1829L30.12 16.3804L30.246 16.4565L30.3429 16.5064L30.419 16.5374L30.4688 16.547L30.5046 16.5374L30.5196 16.5168L30.5252 16.481L30.5196 16.4421L30.4855 16.3401L30.4291 16.2392L30.3683 16.1321L27.8379 12.6862L27.4899 12.297L27.1695 11.9568L26.8866 11.6643L26.6243 11.4065L26.3903 11.1932L26.1832 11.0165L26.0056 10.8691L25.8439 10.7533L25.7123 10.662L25.5956 10.5915L25.4293 10.5098L25.3332 10.4796L25.3079 10.4749L24.9441 10.3283L24.6149 10.2116L24.3255 10.1203L24.068 10.0595L23.8394 10.0197L23.6427 9.99915L23.4699 9.99435ZM23.9317 10.7832L23.8705 10.7933L23.8206 10.8187L23.7753 10.8432L23.7341 10.8798L23.6685 10.9551L23.6326 11.0113L23.6183 11.0359L23.5963 11.1534L23.5667 11.2738L23.5321 11.3905L23.4867 11.5069L23.3796 11.7401L23.2536 11.9684L23.1062 12.1848L22.9492 12.3925L22.7875 12.5901L22.6209 12.7772L22.4592 12.9446L22.2974 13.1016L22.0238 13.3487L21.8319 13.5113L21.7558 13.5669L21.8818 13.7946L21.9928 13.9563L22.0897 14.0626L22.1706 14.1282L22.2307 14.1584L22.2808 14.1696H22.3062L22.318 14.164L22.4592 14.0426L22.7421 13.7785L23.5321 13.0356L24.6404 11.9828L24.6697 11.9225L24.6959 11.8613L24.7108 11.805L24.7212 11.7551V11.664L24.7006 11.5877L24.6697 11.533L24.6404 11.4919L24.6045 11.4569L24.3916 11.0717L24.301 10.9655L24.2202 10.8894L24.1385 10.8339L24.0624 10.799L23.9917 10.7832H23.9317ZM15.8804 10.9551L15.8248 10.9607L15.7645 10.9655L15.6577 10.9956L15.5411 11.0359L14.7315 11.8455L14.661 11.9019L14.6046 11.9574L14.5635 12.0033L14.5387 12.0484L14.5199 12.089L14.5133 12.1293V12.1594L14.5246 12.1905L14.5491 12.2412L14.5841 12.2752L14.6252 12.3015L15.0654 12.6146L15.4746 12.8882L15.8598 13.127L16.2197 13.329L16.548 13.4955L16.8565 13.6327L17.1347 13.7438L17.3878 13.8351L17.6113 13.9007L17.8032 13.9514L17.9706 13.9872L18.107 14.007L18.2892 14.0222H18.3544L18.3138 13.8444L18.2726 13.6939L18.2282 13.5615L18.1791 13.4561L18.1284 13.3696L18.0767 13.2983L18.0221 13.2428L17.9723 13.2031L17.9206 13.172L17.8756 13.1571L17.7947 13.1365L17.7392 13.1419L17.7231 13.1467L17.567 13.081L17.4109 13.0001L17.253 12.9137L17.0952 12.8179L16.7875 12.6147L16.5037 12.4126L16.2619 12.2207L16.0636 12.0637L15.8925 11.9169L15.8466 11.8766L15.8164 11.8369L15.791 11.7949L15.7806 11.7552L15.7758 11.7149L15.7806 11.6791L15.8051 11.6086L15.8466 11.5474L15.882 11.5024L15.9274 11.457L15.9883 11.3248L16.0233 11.2186L16.039 11.1329L16.0328 11.067L16.0075 11.0162L15.9781 10.9861L15.932 10.9655L15.882 10.9551H15.8804ZM24.9385 12.1251L24.9123 12.129L24.8869 12.144L24.852 12.1851L24.8275 12.2415L24.8117 12.3018L22.812 14.1287L22.7621 14.1786L22.7326 14.2342L22.7233 14.2952L22.7281 14.3609L22.7421 14.4269L22.7723 14.4925L22.8072 14.5585L22.8492 14.6241L22.9445 14.7465L23.0301 14.8471L23.1277 14.9381L23.1522 14.9834L23.1823 15.0136L23.2187 15.039L23.2584 15.05L23.3035 15.0548L23.3494 15.05L23.4446 15.0237L23.5365 14.9882L23.6183 14.9485L23.6895 14.9034L25.4802 13.4603L25.5142 13.4253L25.5458 13.3896L25.576 13.3135L25.5864 13.2382L25.576 13.167L25.5602 13.1018L25.5402 13.0511L25.5142 13.0052L25.2026 12.408L25.1453 12.3113L25.0892 12.2415L25.0447 12.1908L25.005 12.1544L24.9686 12.1344L24.9385 12.1251ZM14.2749 12.4793L14.0481 12.722L13.8365 12.9694L13.6437 13.2126L13.4763 13.4354L13.2393 13.7843L13.152 13.9159L13.3994 14.0572L13.684 14.195L13.9982 14.3353L14.3319 14.4725L15.0248 14.731L15.7234 14.9682L16.36 15.1712L16.8827 15.3281L17.3672 15.4645L17.347 15.3679L17.3368 15.2871L17.3321 15.2115L17.3368 15.1459L17.347 15.0847L17.3622 15.034L17.4042 14.9483L17.454 14.8928L17.4946 14.8573L17.5453 14.8319L17.6056 14.7558L17.6762 14.7003L17.7626 14.6597L17.8528 14.6345L17.9545 14.6194H18.0552L18.1631 14.6291L18.2637 14.6448L18.4609 14.6851L18.6227 14.7358L18.7743 14.797L18.4911 14.3768L18.2947 14.372L18.0963 14.3611L17.8996 14.3354L17.7071 14.3056L17.5135 14.2593L17.3216 14.2151L17.1297 14.1588L16.9426 14.0936L16.7594 14.0224L16.5779 13.9511L16.2338 13.7893L15.8999 13.618L15.5916 13.4404L15.3078 13.2634L15.0556 13.0859L14.8274 12.925L14.6394 12.7776L14.3723 12.5594L14.2749 12.4793ZM12.971 14.195L12.9203 14.2094L12.8695 14.2339L12.8149 14.2753L12.6976 14.3816L12.5818 14.5084L12.4756 14.6392L12.3891 14.7502L12.3074 14.8674L12.2361 14.9627L12.1608 15.0388L12.0847 15.1007L12.0092 15.1402L11.9323 15.1712L11.8627 15.191L11.792 15.2022H11.7263L11.6034 15.1816L11.5138 15.1562L11.4282 15.1149L11.1554 15.409L10.9372 15.6263L10.7645 15.7683L10.6328 15.8593L10.5415 15.9047L10.486 15.9253H10.4559L10.4457 15.9196L10.3798 15.98L10.3243 16.0417L10.2784 16.102L10.2372 16.1575L10.1873 16.2742L10.1611 16.3756L10.1515 16.4622V16.527L10.1611 16.5881L9.70686 17.504L9.83282 17.4792L9.93428 17.4682L10.0152 17.473L10.0802 17.4879L10.127 17.5133L10.1515 17.5491L10.1738 17.5849L10.1778 17.6308V17.6759L10.1673 17.7213L10.1366 17.8022L10.0969 17.8892L9.46338 18.9105L9.67671 18.9215H9.86383L10.0256 18.9105L10.1611 18.886L10.2744 18.855L10.3697 18.82L10.4457 18.7797L10.5012 18.7383L10.5472 18.6932L10.5773 18.6481L10.6036 18.6067L10.6124 18.5672L10.6225 18.5101V18.4847V18.3951L10.6328 18.3182L10.6478 18.2578L10.663 18.2063L10.6884 18.1721L10.7082 18.1414L10.7343 18.1262L10.7645 18.1121L10.8144 18.1057L10.8603 18.1161L10.9017 18.1366L11.099 18.0502L11.2607 17.9644L11.3915 17.8783L11.498 17.7917L11.5789 17.7213L11.635 17.661L11.6747 17.6103L11.6914 17.5294L11.7105 17.4682L11.735 17.4184L11.7666 17.3778L11.7967 17.3468L11.8269 17.3318L11.8627 17.3169L11.8982 17.3112L11.9585 17.3217L12.014 17.3375L12.0608 17.362H12.1805L12.2978 17.3471L12.4088 17.3112L12.5215 17.2614L12.6261 17.201L12.7276 17.125L12.8237 17.0489L12.9147 16.9672L13.072 16.8054L13.1883 16.6594L13.2954 16.5168L17.0893 16.8006L17.1711 16.8102H17.2472L17.3084 16.8054L17.3534 16.795L17.3931 16.78L17.4242 16.7642L17.4486 16.7442L17.4645 16.7197L17.4803 16.6747L17.485 16.6332L17.4749 16.5881L17.4137 16.3906L17.3731 16.2139L17.3224 15.9402L17.3027 15.7683L17.297 15.7128L16.7724 15.5961L16.2752 15.4742L15.8199 15.3479L15.3988 15.2211L15.0096 15.0943L14.6616 14.9683L14.342 14.8469L14.0588 14.7311L13.8117 14.6194L13.5983 14.5186L13.2692 14.3514L13.0781 14.2404L13.0117 14.1992L12.971 14.195ZM21.0223 14.7465L20.9366 14.7718L20.8653 14.8066L20.8104 14.8527L20.7636 14.9074L20.7295 14.963L20.7036 15.0191L20.6734 15.1103L20.6686 15.1461L20.6367 15.1816L20.6131 15.2214L20.572 15.3284L20.5418 15.46L20.5165 15.6113L20.5012 15.7779L20.4956 15.9554V16.3204L20.5108 16.6738L20.5362 16.9728L20.5606 17.256L20.5362 17.3876L20.506 17.4834L20.4806 17.5494L20.4553 17.5945L20.4243 17.6151L20.3998 17.6207L20.3753 17.6055L20.349 17.5795L20.3085 17.5088L20.2729 17.4226L20.2485 17.3273L20.1825 17.1552L20.1112 16.9832L19.9644 16.6493L19.802 16.3345L19.6408 16.0515L19.4943 15.8138L19.3776 15.6266L19.266 15.4648L19.1494 15.3333L19.0375 15.2214L18.9329 15.1357L18.8307 15.0644L18.7354 15.0137L18.6444 14.9788L18.5627 14.9591L18.4866 14.9486L18.4159 14.943L18.355 14.9486L18.2589 14.9683L18.1986 14.9937L18.178 15.0089L18.1019 15.0041H18.0315L17.9712 15.0137L17.9091 15.0286L17.8593 15.0501L17.8133 15.0754L17.7736 15.1047L17.7381 15.1462L17.6826 15.2315L17.642 15.3284L17.6119 15.4339L17.5952 15.5457L17.5904 15.6621L17.5952 15.7732L17.6119 15.9707L17.6372 16.1124L17.6507 16.1679L17.708 16.3551L17.7381 16.5272L17.7483 16.6938L17.7381 16.8469L17.708 16.9872L17.6626 17.114L17.6119 17.2352L17.5501 17.3423L17.485 17.4336L17.4137 17.5192L17.3478 17.5849L17.2878 17.6452L17.1965 17.7213L17.1559 17.7467L17.1514 17.7709L23.6188 17.6449L23.9562 17.6176L23.9322 17.6103L23.8353 17.5748L23.76 17.5342L23.6943 17.4939L23.614 17.4288L23.5833 17.3978L23.4872 17.3369L23.4111 17.2614L23.3502 17.1805L23.3041 17.0991L23.2685 17.0235L23.2493 16.9618L23.2327 16.9063L23.148 16.6882L23.0566 16.4862L22.9552 16.2995L22.8546 16.1269L22.7427 15.9707L22.6356 15.8238L22.5302 15.6923L22.424 15.5804L22.2315 15.3888L22.0742 15.2569L21.9727 15.176L21.9339 15.1462L21.7253 15.0001L21.5439 14.8874L21.3861 14.8066L21.2444 14.7606L21.1237 14.7466L21.0223 14.7465ZM23.9562 17.6176L24.0439 17.6451L23.7037 17.7627L23.3303 17.8838L22.8689 18.025L22.3479 18.1724L21.8017 18.3079L21.5329 18.3699L21.2649 18.4198L21.0119 18.4595L20.774 18.4849L17.0894 18.1011L17.1514 17.7709L17.1108 17.7716L15.3179 17.5592L14.1597 19.0015L14.4736 20.4795L14.4885 26.2391L15.33 26.7497V21.2288L15.3388 21.1327L15.3602 21.0408L15.3988 20.956L15.4561 20.8799L15.5259 20.8134L15.6074 20.7624L15.709 20.7325L15.8254 20.723L15.8954 20.7277L15.9619 20.7474L16.0174 20.7737L16.0625 20.8038L16.1031 20.8441L16.1389 20.8847L16.1895 20.9757L16.2203 21.0727L16.2347 21.1479L16.245 21.2288L16.2561 27.159L17.0696 27.4077L17.0798 21.3557L17.0854 21.2946L17.0942 21.2185L17.1196 21.1328L17.1606 21.0466L17.2218 20.9657L17.2567 20.9347L17.3027 20.9045L17.3478 20.88L17.4098 20.8594L17.4701 20.849L17.5406 20.8442L17.6214 20.849L17.6927 20.8642L17.7483 20.8902L17.8038 20.9203L17.8444 20.9609L17.879 21.0012L17.9354 21.0916L17.9655 21.1883L17.9807 21.2692L17.9855 21.3447V27.6903L18.867 27.9932L18.8465 21.3898L18.8513 21.2898L18.871 21.2083L18.9059 21.1122L18.9329 21.0663L18.9614 21.0212L18.9986 20.9806L19.0423 20.9457L19.0939 20.9142L19.1556 20.895L19.2263 20.88L19.3064 20.8752L19.3873 20.88L19.4585 20.895L19.5132 20.9203L19.5687 20.9513L19.6107 20.9902L19.6448 21.0313L19.7004 21.1227L19.7322 21.2185L19.7471 21.2946L19.7511 21.3754V28.0994H20.6227L20.5979 21.3803L20.6075 21.2899L20.6266 21.2036L20.6621 21.107L20.7242 21.0157L20.7591 20.9712L20.805 20.9349L20.8549 20.9047L20.9161 20.8801L20.9817 20.8643L21.0578 20.8595L21.1435 20.8643L21.219 20.8849L21.2855 20.9095L21.341 20.9458L21.3861 20.9856L21.4219 21.0261L21.4521 21.0774L21.4726 21.1228L21.5036 21.2186L21.5177 21.2994V21.3803L21.5289 27.9075L22.2765 27.6903L22.2718 21.3194V21.2693L22.2876 21.1989L22.3186 21.1171L22.3583 21.0314L22.4186 20.9514L22.4598 20.9143L22.504 20.8801L22.5547 20.8548L22.6102 20.8334L22.6714 20.8238L22.7379 20.819L22.8292 20.8238L22.9053 20.8443L22.9656 20.8706L23.0211 20.8998L23.0623 20.9404L23.0964 20.9856L23.1226 21.0314L23.1423 21.0822L23.1671 21.1783L23.1733 21.2592V21.34L23.1886 27.3921L23.952 27.1297L23.9472 21.1534L23.9576 21.0467L23.9781 20.9658L24.0184 20.8801L24.0734 20.7992L24.1145 20.7578L24.1534 20.7279L24.2104 20.6978L24.2659 20.6715L24.3366 20.6572L24.4127 20.6515L24.4944 20.6572L24.5648 20.6668L24.6251 20.693L24.6759 20.7232L24.7218 20.7626L24.756 20.804L24.8067 20.8998L24.8376 20.9903L24.8526 21.0728L24.8574 21.1537L24.8686 26.7397L25.7431 26.2637L25.7541 20.4796L26.1737 19.0016L25.1214 17.5238L23.9562 17.6176ZM27.5954 17.9599L27.5401 17.9791L27.5153 17.9996L27.4908 18.025L27.4496 18.1011L27.4243 18.2129L27.409 18.3651L27.4147 18.5562L27.4387 18.6022L27.4553 18.648L27.4694 18.7132L27.4638 18.7949L27.4432 18.8853L27.3933 18.982L27.3583 19.0319L27.3077 19.0826L27.2411 19.1176L27.1816 19.1587L27.1301 19.2094L27.1095 19.2443L27.1007 19.2801L27.1047 19.3204L27.1149 19.3658L27.1458 19.4117L27.1913 19.4625L27.2577 19.5172L27.3434 19.5735L27.4283 19.6045L27.5051 19.6392L27.586 19.6947L27.6224 19.7305L27.6517 19.7663L27.6723 19.8113L27.6875 19.8573V19.9128L27.6723 19.9683L27.6415 20.0343L27.5908 20.1056L27.5599 20.1611L27.5454 20.2214V20.3029L27.5551 20.3426L27.5756 20.3885L27.6066 20.4291L27.6517 20.4742L27.7072 20.5153L27.7785 20.5551L27.8689 20.5962L27.9761 20.6312L28.0561 20.621H28.1378L28.2393 20.6264L28.3399 20.6416L28.4376 20.6765L28.481 20.6979L28.516 20.7281L28.5518 20.7619L28.5732 20.8087L28.5921 20.6923L28.6183 20.5756L28.6634 20.4339L28.7246 20.2814L28.7657 20.2118L28.8093 20.1405L28.8657 20.0737L28.9221 20.0143L28.9934 19.9683L29.0686 19.9272L29.1963 19.8263L29.3104 19.72L29.4223 19.5933L29.4683 19.529L29.5048 19.4625L29.5246 19.3965V19.3356L29.5048 19.2801L29.4883 19.25L29.4589 19.2294L29.3865 19.184L29.2749 19.1539L29.2155 19.1485L29.1495 19.1285L29.0782 19.093L29.0481 19.0676L29.0117 19.0319L28.9878 18.9969L28.9681 18.9463L28.9523 18.8902L28.9427 18.8242L28.9466 18.749L28.9615 18.6625L28.9567 18.5872L28.9427 18.5103L28.9126 18.4348L28.8854 18.4001L28.8562 18.3699L28.815 18.3494L28.7705 18.3333H28.7096L28.6445 18.3437L28.5637 18.3748L28.4718 18.4151L28.4115 18.4404L28.3446 18.4548L28.2742 18.4658L28.2029 18.4595L28.1736 18.45L28.1435 18.4294L28.1181 18.4049L28.0975 18.3748L28.0862 18.3285L28.0832 18.2778L28.0505 18.2432L27.9713 18.1566L27.854 18.0605L27.7881 18.0146L27.7216 17.9791L27.6565 17.9599H27.5954ZM12.379 18.4152L12.3432 18.4254L12.2435 18.4595L12.1001 18.5207L11.9295 18.6173L11.8321 18.6825L11.7416 18.7586L11.6503 18.8504L11.5654 18.9512L11.484 19.0676L11.4071 19.1992L11.3411 19.3404L11.2913 19.5078L11.22 19.5935L11.1557 19.695L11.0937 19.8218L11.0684 19.8925L11.0469 19.9677L11.0373 20.0495V20.1304L11.0469 20.2118L11.0788 20.2927L11.123 20.3736L11.1842 20.4539L11.2104 20.51L11.2358 20.5759L11.2611 20.6664L11.2816 20.7836L11.2865 20.9305L11.2816 21.1015L11.2555 21.2998L11.3975 21.1276L11.5488 20.935L11.7312 20.6923L11.9135 20.4142L11.9992 20.262L12.0848 20.1104L12.1609 19.9591L12.2229 19.8069L12.2727 19.6544L12.3078 19.5079L12.288 19.4468L12.2784 19.3763L12.2624 19.2652V19.1179L12.2784 18.9268L12.3133 18.6935L12.379 18.4152ZM13.2599 19.5433L13.2187 19.6242L13.1632 19.72L13.0719 19.8472L12.9516 19.9985L12.7834 20.1659L12.6827 20.2512L12.5709 20.3426L12.4457 20.4339L12.3077 20.5257L12.288 20.5401L12.2268 20.5861L12.1459 20.6613L12.1 20.7177L12.061 20.7833L12.0143 20.8589L11.974 20.9507L11.9382 21.0513L11.9081 21.1632L11.8884 21.2894L11.8731 21.432V21.5828L11.8884 21.7555L11.8731 21.8102L11.8478 21.9576L11.8424 22.0585V22.1701L11.8582 22.2915L11.8884 22.4223L11.9492 22.3273L12.0295 22.225L12.1358 22.094L12.2727 21.9418L12.4336 21.7848L12.6216 21.6231L12.7279 21.547L12.8341 21.4771L12.8698 21.4509L12.9611 21.3804L13.0172 21.3249L13.0832 21.2536L13.1426 21.1632L13.2044 21.0617L13.2599 20.9405L13.31 20.8041L13.3455 20.6416L13.3709 20.464L13.3757 20.2665L13.3607 20.0492L13.3194 19.8066L13.2599 19.5433ZM10.269 19.6448L10.0303 20.2163L9.87897 20.5446L9.80373 20.6976L9.77837 20.7374L9.78315 20.8286L9.79246 20.9253L9.81388 21.0157L9.83304 21.1012L9.89954 21.2795L9.98521 21.4413L10.0858 21.5929L10.2033 21.7394L10.3197 21.8758L10.446 21.9973L10.5727 22.1098L10.6886 22.2041L10.9059 22.3629L11.0589 22.4581L11.1135 22.4936L11.0525 22.3423L11.0034 22.1859L10.9619 22.0337L10.9264 21.8758L10.8819 21.5825L10.8605 21.3091L10.8509 21.0775L10.8566 20.8943L10.8653 20.7374L10.8303 20.6263L10.7591 20.4742L10.557 20.1101L10.3595 19.786L10.269 19.6448ZM30.062 19.7251L30.0257 19.7355L29.9859 19.7561L29.9392 19.7806L29.8947 19.8164L29.8037 19.9227L29.7022 20.0692L29.7324 20.1154L29.7568 20.1605L29.7625 20.2169L29.7521 20.2471L29.7371 20.2763L29.7118 20.3071L29.6721 20.3327L29.6165 20.3634L29.5452 20.3834L29.4596 20.4032L29.3477 20.419H29.328H29.2755L29.2065 20.4333L29.1653 20.4491L29.1295 20.4736L29.0949 20.5046L29.0647 20.5452L29.0394 20.5964L29.0233 20.6568L29.0124 20.7328L29.0185 20.8233L29.0337 20.9304L29.0695 21.0515L28.9782 21.1223L28.903 21.1992L28.8615 21.2491L28.8212 21.3094L28.7854 21.3698L28.7601 21.4362L28.7466 21.5067L28.7404 21.5875L28.7499 21.6684L28.7767 21.7493L28.8269 21.8415L28.8925 21.9319L28.9275 21.9731L28.9686 22.023L29.0036 22.0841L29.0447 22.1602L29.0695 22.2411L29.0788 22.3315V22.3766L29.0695 22.4226L29.0124 22.4781L28.9734 22.5392L28.9385 22.621L28.9337 22.6669V22.7168L28.9433 22.7675L28.9624 22.8222L28.9979 22.8786L29.0486 22.9389L29.1208 22.9952L29.2065 23.0552L29.2725 23.126L29.4184 23.2979L29.5649 23.4858L29.6109 23.5571L29.6306 23.6112V23.5715L29.6449 23.5264L29.6768 23.4653L29.7321 23.3892L29.8234 23.3083L29.9502 23.2173L30.1215 23.126L30.177 23.1006L30.2326 23.0712L30.2942 23.0254L30.3445 22.9586L30.361 22.9192L30.3751 22.8738L30.38 22.8222L30.3751 22.7675L30.361 22.701L30.3348 22.6351L30.2942 22.5646L30.2681 22.4942L30.2475 22.4085V22.3569L30.2523 22.3124L30.2641 22.2656L30.2888 22.2205L30.3236 22.1752L30.3697 22.1349L30.4306 22.0991L30.5062 22.0737L30.5828 22.0683L30.6535 22.0483L30.6899 22.0286L30.724 22.008L30.7541 21.9731L30.7747 21.9319L30.7899 21.8818V21.8209L30.7795 21.7448L30.7541 21.6592L30.709 21.5583L30.6487 21.4419L30.6129 21.4013L30.5876 21.3601L30.567 21.3094L30.5574 21.243L30.5631 21.2088L30.5719 21.173L30.5925 21.1327L30.6226 21.0969L30.6685 21.0563L30.7187 21.016L30.7598 20.9662L30.7899 20.909L30.8088 20.8281L30.8162 20.7838L30.8044 20.7328L30.7899 20.6768L30.7654 20.6164L30.7241 20.5545L30.6687 20.4897L30.5964 20.419L30.5062 20.3476L30.4966 20.2969L30.4608 20.1763L30.4 20.0185L30.361 19.9376L30.3143 19.8672L30.2644 19.8012L30.2024 19.7561L30.1373 19.7308L30.1009 19.7251H30.062ZM27.0397 20.6363L26.9903 20.6467L26.934 20.6769L26.8833 20.7275L26.8365 20.8045L26.7923 20.9091L26.746 21.0519L26.7517 21.097L26.746 21.1534L26.7367 21.2137L26.7114 21.2898L26.6756 21.3659L26.6144 21.442L26.5383 21.5071L26.4679 21.5784L26.4059 21.6536L26.3561 21.7449L26.3363 21.7956L26.3315 21.8512V21.9019L26.3464 21.9517L26.3718 22.0025L26.418 22.0532L26.482 22.0992L26.575 22.1397L26.5947 22.1857L26.6305 22.2911L26.6406 22.3627L26.6454 22.4388L26.6344 22.5196L26.609 22.6005L26.5947 22.625L26.5693 22.6907L26.544 22.7929L26.5383 22.8485V22.9032L26.5496 22.9634L26.5693 23.0254L26.6043 23.0815L26.6511 23.1316L26.7167 23.1768L26.7967 23.2174L26.903 23.248L27.0301 23.2681L27.0647 23.2934L27.1014 23.3241L27.1276 23.3647L27.1364 23.4154L27.1307 23.4456L27.1158 23.4766L27.0958 23.5059L27.0603 23.5369L27.0205 23.5715L26.9585 23.6121L26.8985 23.6882L26.8531 23.7691L26.8317 23.8142L26.8176 23.8601L26.8111 23.907L26.8176 23.9507L26.8365 23.992L26.8675 24.0267L26.9199 24.0577L26.996 24.0831L27.0847 24.0983L27.2068 24.1028L27.3083 24.1854L27.5709 24.3669L27.738 24.477L27.9156 24.5788L28.0926 24.6707L28.2591 24.7357L28.2534 24.6904L28.2591 24.6286L28.2797 24.5534L28.3194 24.4573L28.3907 24.3511L28.4977 24.2352L28.569 24.1687L28.6451 24.1028L28.6793 24.0935L28.7602 24.0529L28.8615 23.9917L28.9179 23.9507L28.9622 23.9007L28.9979 23.8509L29.0282 23.7945L29.0391 23.7285L29.0282 23.6581L29.0036 23.5868L28.9473 23.5108L28.8663 23.4259L28.7497 23.3386L28.6643 23.3132L28.5826 23.2838L28.538 23.2529L28.5025 23.2227L28.4676 23.1824L28.4383 23.1365L28.4161 23.0761L28.4121 23.0103L28.4161 22.935L28.4383 22.8484L28.4771 22.7462L28.538 22.6352L28.6032 22.5796L28.649 22.5196L28.6896 22.4432L28.6998 22.4086V22.3672L28.6832 22.3316L28.6595 22.2911L28.6141 22.2561L28.5525 22.2254L28.4724 22.2006L28.3661 22.1752H28.2946L28.2297 22.1538L28.1988 22.1397L28.1742 22.1152L28.1481 22.0842L28.1328 22.0484L28.1227 21.9968L28.1266 21.9422L28.1441 21.8709L28.1742 21.7852L28.2241 21.6894L28.2949 21.5784L28.3106 21.4769L28.3146 21.3754L28.3058 21.2689L28.2852 21.2137L28.2591 21.1674L28.2241 21.1224L28.1742 21.0922L28.1123 21.0669L28.037 21.0564L27.9457 21.0612L27.8395 21.0874L27.7926 21.1018L27.7492 21.1066H27.6882L27.6176 21.0922L27.5407 21.0564L27.4599 21.0012L27.379 20.9091L27.313 20.8141L27.2369 20.7332L27.1919 20.6974L27.1411 20.6665L27.0904 20.6467L27.0397 20.6363ZM13.5389 21.4769L13.5405 21.5087L13.5437 21.5014V21.4817L13.5389 21.4769ZM13.5405 21.5087L13.5279 21.5372L13.4882 21.6037L13.4082 21.6942L13.27 21.8156L13.0727 21.9774L12.8005 22.1747L12.769 22.1905L12.6929 22.2415L12.5827 22.3316L12.5264 22.3936L12.4599 22.464L12.4044 22.5441L12.3441 22.641L12.2942 22.7512L12.2536 22.8741L12.2178 23.0105L12.1972 23.1618L12.1932 23.3292L12.202 23.5107L12.2178 23.5518L12.2322 23.6068L12.244 23.6882L12.2487 23.7891V23.9064L12.2322 24.0475L12.202 24.2102L12.3441 24.0428L12.6834 23.6527L13.079 23.223L13.2543 23.0398L13.3961 22.9139L13.4326 22.8029L13.4628 22.6712L13.4922 22.4991L13.5231 22.2866L13.549 22.0392L13.5532 21.7703L13.5405 21.5087ZM9.63782 21.9323V21.9971L9.6474 22.1747L9.6615 22.297L9.68685 22.4387L9.72265 22.5959L9.77337 22.7568L9.83988 22.9287L9.9247 23.1009L10.0309 23.2728L10.1572 23.4459L10.2293 23.5268L10.3102 23.5963L10.3967 23.6781L10.4869 23.7488L10.5878 23.8192L10.6994 23.8858L10.8152 23.9461L10.9381 24.0007L10.9722 23.9912H11.0181L11.0897 24.0007L11.1912 24.0383L11.3219 24.1031L11.4986 24.2039L11.7111 24.3505L11.575 24.027L11.4592 23.7288L11.3631 23.4402L11.3368 23.3698L11.3022 23.2832L11.2315 23.1722L11.13 23.0398L10.988 22.8938L10.9026 22.8123L10.8017 22.7314L10.6836 22.6506L10.5528 22.5649L10.4362 22.5243L10.3102 22.4736L10.162 22.4079L10.0064 22.3167L9.85426 22.2042L9.78832 22.1448L9.72829 22.078L9.67756 22.0084L9.63782 21.9323ZM13.4667 23.5107L13.4422 23.52L13.3709 23.5575L13.2748 23.6384L13.2148 23.6939L13.1584 23.7691L13.0965 23.8556L13.0316 23.9619L12.9761 24.0878L12.9205 24.2352L12.8698 24.4018L12.8239 24.5945L12.7889 24.8117L12.7636 25.0544L12.8239 25.1558L12.88 25.2725L12.9459 25.4295L13.0068 25.6071L13.0268 25.7068L13.0465 25.8085L13.0617 25.9153L13.0663 26.0255L13.0617 26.1374L13.0465 26.2493L13.1029 26.2135L13.1632 26.158L13.2402 26.0661L13.3193 25.9401L13.3605 25.8545L13.4003 25.7584L13.4422 25.6512L13.4771 25.5253L13.5082 25.3832L13.5383 25.2312L13.5825 25.1708L13.6231 25.0947L13.6643 24.9789L13.7054 24.8214L13.7302 24.6191L13.7356 24.5024V24.3716L13.7302 24.229L13.7141 24.0672L13.6944 24.0577L13.6738 24.0323L13.6445 23.9864L13.6096 23.9165L13.5685 23.8198L13.5174 23.6834L13.4667 23.5107ZM29.2312 24.2648L29.1717 24.2696L29.1148 24.2902L29.0602 24.326L29.0038 24.3815L28.9578 24.4528L28.9181 24.5477L28.8817 24.6661L28.8569 24.8071L28.8062 25.1807L28.8014 25.2114V25.1759L28.8214 24.9127L28.7468 24.8879L28.6698 24.8729L28.6286 24.8681L28.5928 24.8729L28.5582 24.8879L28.5272 24.9071L28.5081 24.9442L28.4979 24.9888L28.4931 25.0497L28.5081 25.126L28.5328 25.221L28.574 25.3328L28.6081 25.3591L28.7047 25.4247L28.8722 25.5144L29.1052 25.6158L29.1765 25.642L29.2518 25.6515L29.3383 25.6468L29.3789 25.6372L29.4135 25.6158L29.4431 25.5857L29.4747 25.5405L29.4938 25.485L29.5056 25.4193V25.3328L29.489 25.2314L29.5547 25.1091L29.6111 24.9888L29.6666 24.842L29.6872 24.7659L29.6976 24.6907L29.7024 24.6193L29.6976 24.5477L29.677 24.4812L29.6451 24.4266L29.5962 24.3815L29.5254 24.3513L29.4992 24.3352L29.4344 24.3051L29.3422 24.2744L29.2858 24.2648H29.2312ZM10.1626 24.3505L10.1792 24.3973L10.2133 24.5337L10.2894 24.7312L10.4066 24.9834L10.4875 25.1203L10.5788 25.2672L10.6794 25.4137L10.8023 25.5653L10.9426 25.7167L11.1005 25.8643L11.2718 26.0061L11.4645 26.1425L12.729 26.4257L12.7338 26.3702L12.7141 26.2233L12.6935 26.1228L12.6586 26.0061L12.603 25.8792L12.5325 25.7372L12.4303 25.5954L12.3041 25.4433L12.1527 25.2973L12.0622 25.2212L11.96 25.1513L11.8546 25.0752L11.7325 25.0039L11.6048 24.938L11.4685 24.8732L11.3168 24.8065L11.1568 24.7456L10.9832 24.6844L10.7961 24.6346L10.7716 24.6495L10.731 24.6551L10.6645 24.6495L10.5836 24.6241L10.4734 24.5734L10.3362 24.4815L10.1626 24.3505ZM27.272 24.4925L27.222 24.503L27.1648 24.5283L27.1054 24.5638L27.0459 24.6289L27.0141 24.6661L26.9961 24.716L26.9746 24.7662L26.9634 24.8318L26.9541 24.9026L26.9589 24.9834L26.969 24.9944L26.9795 25.0088L26.9746 25.0333L26.9634 25.0595L26.9292 25.0849L26.8724 25.1204L26.7819 25.161L26.7167 25.1759L26.6511 25.2013L26.5844 25.2474L26.5545 25.2774L26.5288 25.3123L26.5147 25.3489L26.5029 25.3988L26.499 25.4495L26.5083 25.5099L26.533 25.5755L26.5751 25.6516L26.5948 25.697L26.6091 25.7477L26.6145 25.804L26.6044 25.8689L26.5948 25.8991L26.5751 25.9348L26.5441 25.9658L26.5029 25.9904L26.4584 26.0156L26.3972 26.0362L26.3316 26.0608L26.2704 26.0917L26.2047 26.1369L26.1445 26.2028L26.1182 26.2439L26.0991 26.2899L26.0889 26.34V26.3961L26.0937 26.4612L26.1134 26.5319L26.1239 26.5722V26.6134L26.1182 26.6683L26.1039 26.7349L26.0684 26.796L26.0176 26.8608L25.9421 26.9172L25.8748 26.9727L25.8201 27.0321L25.7733 27.1192L25.7654 27.1637L25.755 27.2201L25.7606 27.2717L25.7733 27.332L25.8057 27.392L25.8559 27.4532L25.9215 27.5183L26.0072 27.5831L26.0636 27.6547L26.18 27.8266L26.3211 28.0591L26.3823 28.1754L26.433 28.2873L26.4781 28.2318L26.5384 28.1754L26.6202 28.1152L26.7264 28.0543L26.8637 28.0044L26.9389 27.9835L27.0205 27.9734L27.1102 27.9686H27.2069L27.3084 27.9591L27.4045 27.9385L27.516 27.8973L27.571 27.8672L27.6177 27.8322L27.662 27.7863L27.6929 27.7308L27.7175 27.6696L27.7287 27.5935L27.7175 27.5087L27.6986 27.4081L27.6732 27.3413L27.6572 27.2717L27.6524 27.1962L27.6572 27.1503L27.6732 27.1091L27.6929 27.0742L27.7285 27.0378L27.7674 27.0085L27.8238 26.9823L27.8959 26.9617L27.9767 26.9521H28.072L28.1528 26.9417L28.1988 26.9268L28.24 26.9062L28.2797 26.8823L28.3059 26.8459L28.3247 26.8005L28.3361 26.7444L28.3247 26.6728L28.3003 26.5928L28.2535 26.5018L28.1884 26.3908L28.1591 26.3606L28.1328 26.32L28.1124 26.2684L28.103 26.2084L28.1124 26.1369L28.1528 26.0568L28.1839 26.0109L28.2242 25.9658L28.2692 25.8897L28.3059 25.804L28.3296 25.697V25.6471L28.3247 25.5859L28.3107 25.5304L28.2853 25.4805L28.24 25.4298L28.1839 25.3783L28.1075 25.3377L28.0125 25.2974L28.0007 25.3022L27.9666 25.3075L27.9102 25.2925L27.8293 25.252L27.7795 25.2165L27.7223 25.1666L27.662 25.0998L27.5964 25.019L27.5264 24.9184L27.4503 24.7969L27.363 24.6552L27.272 24.4925ZM13.8125 25.7221L13.7912 25.7373L13.7663 25.7776L13.7362 25.8545L13.7117 25.9807L13.6854 26.1678L13.6745 26.4254L13.6802 26.7752L13.6854 26.8823L13.6903 26.9933L13.7117 27.1297L13.7418 27.2867L13.7807 27.4419L13.8433 27.5932L13.8813 27.6592L13.9281 27.7257L13.9788 27.74L14.0343 27.7663L14.105 27.8018L14.1859 27.8573L14.2677 27.9337L14.3486 28.0238L14.419 28.1453L14.4548 28.0295L14.4849 27.9018L14.5148 27.7305L14.5343 27.5328V27.315L14.5295 27.1992L14.5081 27.0833L14.4836 26.9604L14.4534 26.8446L14.3678 26.7139L14.175 26.3999L13.9625 26.0311L13.876 25.8583L13.8205 25.7211H13.8112L13.8125 25.7221ZM11.641 26.8459L11.6974 26.9175L11.7473 27.0085L11.8329 27.2306L11.8995 27.4272L11.9248 27.5129L12.086 27.6389L12.254 27.7516L12.4205 27.8474L12.5925 27.9379L12.759 28.014L12.9273 28.0805L13.2411 28.1814L13.514 28.2518L13.7313 28.2921L13.9286 28.3223L13.8471 28.2369L13.7716 28.1456L13.6352 27.9585L13.5036 27.7609L13.3618 27.5589L13.2412 27.4072L13.1398 27.2965L13.0628 27.2201L13.0082 27.1703L12.9724 27.1392L12.9413 27.13L12.7449 27.1037L12.5325 27.0697L12.3143 27.0229L12.1066 26.973L11.7775 26.8865L11.641 26.8459ZM14.8046 27.4422L14.9965 27.6594L15.1727 27.8872L15.3353 28.1107L15.4765 28.3223L15.6794 28.6467L15.7555 28.7783L15.9727 28.8749L16.1957 28.9448L16.4126 29.0011L16.6159 29.0414L16.9298 29.082L17.0558 29.0916L16.9901 28.9344L16.9242 28.7886L16.8585 28.6562L16.7878 28.53L16.6474 28.3175L16.515 28.1504L16.3929 28.0241L16.2963 27.9331L16.2106 27.8618L16.09 27.7863L15.968 27.715L15.8468 27.6547L15.7253 27.6039L15.4875 27.5296L15.2685 27.4841L15.0823 27.458L14.9358 27.4422H14.8046ZM25.5382 27.8824L25.5027 27.8872L25.4615 27.9021L25.4218 27.9274L25.3759 27.968L25.3305 28.0044L25.2838 28.0393L25.2395 28.0949L25.1927 28.1614L25.1674 28.2369V28.282V28.3279L25.1831 28.3733L25.2046 28.4288L25.2434 28.4398L25.2838 28.4595L25.3305 28.4897L25.3702 28.5255L25.3956 28.5762L25.4021 28.6016V28.6365L25.3908 28.6714L25.3759 28.707L25.3851 28.7681L25.4105 28.8228L25.452 28.8839L25.4821 28.9093L25.5216 28.94L25.5731 28.9592L25.6286 28.975L25.7 28.9854H25.7803L25.8722 28.975L25.9784 28.9544L25.9981 28.9203L26.0483 28.8338L26.1091 28.7016L26.1354 28.6213L26.1497 28.5303L26.1545 28.4634L26.1497 28.393L26.1402 28.3178L26.1139 28.2471L26.0996 28.2163L26.0784 28.191L26.0483 28.1757L26.0181 28.1656H25.9823L25.9426 28.1805L25.9172 28.1853L25.8617 28.1805L25.8262 28.171L25.7916 28.1594L25.7623 28.1293L25.7307 28.0833L25.7098 28.0335L25.6862 27.9872L25.6442 27.9365L25.5988 27.9019L25.5689 27.8962L25.5394 27.8914L25.5382 27.8824ZM23.2302 28.0993L23.1747 28.1059L23.124 28.1208L23.0772 28.1501L23.0422 28.1859L23.0073 28.2214L22.9565 28.3023L22.9155 28.3927L22.7641 28.4688L22.6491 28.5156L22.5618 28.5449L22.5014 28.5545L22.4611 28.5497L22.4405 28.5449L22.4253 28.53L22.32 28.4736L22.2233 28.4348L22.1376 28.4085L22.0663 28.3927H22.0005L21.9401 28.3984L21.8942 28.4133L21.8474 28.4348L21.8181 28.4592L21.7871 28.4894L21.7468 28.5401L21.7223 28.6013L20.9174 29.2334L20.7819 29.33L20.6635 29.4053L20.5525 29.4608L20.4566 29.5014L20.3662 29.5272L20.291 29.5369L20.2236 29.5425L20.1633 29.5321L20.1125 29.5228L20.0776 29.5014L20.0165 29.4608L19.9809 29.4259L19.9714 29.411L19.8398 29.3349L19.6885 29.2443L19.5146 29.1277L19.2277 28.9344L18.9589 28.7783L18.7106 28.652L18.4775 28.5545L18.2659 28.4855L18.0731 28.4348L17.9021 28.4032L17.7448 28.3927L17.6079 28.3888L17.4864 28.3984L17.3849 28.419L17.3041 28.4395L17.1978 28.4792L17.1575 28.4951L17.2136 28.5807L17.2691 28.6559L17.3303 28.7275L17.3898 28.7989L17.5324 28.9152L17.6783 29.0209L17.8353 29.1063L17.9923 29.1779L18.1486 29.2334L18.3062 29.2801L18.4587 29.3143L18.5951 29.3396L18.8321 29.3641L19.0001 29.3752H19.0556L19.2173 29.3904L19.3537 29.411L19.4704 29.4298L19.5614 29.456L19.6423 29.4814L19.7017 29.5062L19.7527 29.5321L19.789 29.5583L19.8088 29.5876L19.8248 29.6085L19.8398 29.6536L19.8333 29.679L19.8288 29.6939L19.693 29.77L19.5614 29.8509L19.4442 29.9373L19.3331 30.0286L19.2365 30.1236L19.146 30.2157L18.9938 30.3973L18.8828 30.5646L18.8028 30.6962L18.7407 30.8174L18.9541 30.8879L19.0135 30.7216L19.0905 30.5796L19.1762 30.4488L19.2675 30.3321L19.3594 30.2308L19.46 30.1394L19.5561 30.0633L19.6526 29.9968L19.8288 29.9016L19.9763 29.8413L20.0721 29.8058L20.1078 29.7953L20.1476 29.7604L20.1839 29.7345L20.2586 29.7091L20.329 29.7043L20.3972 29.7184L20.4527 29.7398L20.4925 29.7643L20.528 29.7953L20.6241 29.8364L20.7103 29.8867L20.7906 29.947L20.8667 30.0126L20.9324 30.0887L20.9926 30.1647L21.0941 30.3217L21.1702 30.4677L21.2266 30.5953L21.2663 30.712L21.5137 30.6041L21.4788 30.539L21.4382 30.463L21.3385 30.3172L21.2156 30.1599L21.088 30.0182L20.8721 29.7852L20.7754 29.6939L20.7867 29.6375L20.8064 29.5924L20.8309 29.5623L20.8667 29.5369L20.9013 29.5163L20.9485 29.5059L21.0332 29.5011L21.1195 29.5115L21.195 29.5273L21.2663 29.5527L21.3875 29.6288L21.4994 29.679L21.585 29.7043L21.6611 29.7136H21.7158L21.7634 29.7043L21.7919 29.6939L21.853 29.7558L21.9139 29.8009L21.9663 29.8367L22.0044 29.8556L22.0464 29.8613H22.0805L22.1106 29.8509L22.1376 29.8367L22.1726 29.7953L22.198 29.7437L22.2129 29.6939L22.2535 29.6629L22.2938 29.6423L22.365 29.6288L22.431 29.6375L22.4857 29.6584L22.5372 29.6939L22.5723 29.7249L22.6024 29.7607L22.6681 29.8709L22.7348 29.958L22.8052 30.0183L22.8704 30.0532L22.9361 30.0729L23.0028 30.0786L23.0637 30.0681L23.1183 30.0484L23.1747 30.0183L23.2254 29.9872L23.3009 29.9159L23.3562 29.8556L23.377 29.8312L23.4278 29.7437L23.4839 29.6987L23.5388 29.6742H23.5847L23.6289 29.6837L23.6592 29.7043L23.6919 29.7249L23.7916 29.8207L23.8725 29.8867L23.9485 29.9317L24.0097 29.958L24.0596 29.9675L24.1055 29.9628L24.1405 29.947L24.1667 29.9216L24.1873 29.8867L24.2007 29.8509L24.2174 29.7748V29.6939V29.6536V29.6243L24.2261 29.5981L24.2436 29.5829L24.2825 29.5527L24.3276 29.5426H24.3792H24.4195L24.4648 29.5527L24.6004 29.4718L24.7027 29.4053L24.7787 29.3396L24.8334 29.2444L24.9002 29.1421L24.981 29.0415L25.0673 28.9494L25.2093 28.8036L25.2759 28.7425L25.0364 28.8036L24.8748 28.8392L24.7691 28.8496L24.713 28.8392L24.6923 28.8233V28.8036L24.713 28.7783L24.652 28.652L24.5908 28.5498L24.5251 28.4737L24.4648 28.419L24.4085 28.3784L24.3489 28.353L24.2934 28.3421H24.2436L24.1912 28.353L24.1461 28.3682L24.0748 28.4085L24.0238 28.4443L24.0097 28.4592L23.848 28.4792L23.7361 28.4737L23.6591 28.4592L23.6101 28.4348L23.5901 28.4085L23.5847 28.384V28.3587L23.503 28.2564L23.4278 28.1859L23.3562 28.1352L23.2905 28.1104L23.2302 28.0993ZM14.7536 28.7225L14.7178 28.7278L14.7035 28.7374L14.6981 28.7431L13.7157 28.8135L13.7971 28.865L13.882 28.9406L13.9645 29.026L14.0406 29.1173L14.1612 29.2751L14.2081 29.3402L14.3585 29.436L14.5014 29.5169L14.6417 29.5772L14.7742 29.6287L14.9002 29.6637L15.0173 29.6896L15.1292 29.704L15.2301 29.7088L15.4068 29.704L15.5376 29.6842L15.6193 29.6637L15.6494 29.6581L16.0586 29.5225L16.3836 29.436L16.5907 29.3901L16.6668 29.3749L16.4994 29.3503L16.3179 29.3092L16.1339 29.2585L15.9634 29.2037L15.6897 29.1024L15.5781 29.0609L15.3005 28.915L15.0825 28.8183L14.9312 28.7574L14.8241 28.7278L14.7536 28.7225ZM17.3344 29.5168L17.1321 29.5475L16.9506 29.5873L16.788 29.6381L16.6414 29.6896L16.5098 29.7499L16.398 29.8102L16.2965 29.8767L16.2109 29.937L16.1405 29.9973L16.0784 30.0582L15.9944 30.1596L15.9429 30.2247L15.928 30.2557L16.1205 30.296L16.3124 30.3121L16.4995 30.3166L16.677 30.3073L16.8286 30.2912L16.9506 30.2754L17.0561 30.2557L17.5518 30.1749L17.8656 30.1295L18.0733 30.1129L18.1241 30.0289L18.2002 29.9418L18.2849 29.8561L18.3771 29.7705L18.5341 29.6381L18.5998 29.5873L18.2748 29.5826L18.002 29.5777L17.6134 29.5523L17.4001 29.527L17.3344 29.5168Z" fill="#F9F9FA"/>
<path d="M35.8048 20.0122C35.8048 28.6333 28.8162 35.622 20.1951 35.622C11.574 35.622 4.58533 28.6333 4.58533 20.0122C4.58533 11.3911 11.574 4.40247 20.1951 4.40247C28.8162 4.40247 35.8048 11.3911 35.8048 20.0122ZM6.69605 20.0122C6.69605 27.4675 12.7398 33.5112 20.1951 33.5112C27.6504 33.5112 33.6941 27.4675 33.6941 20.0122C33.6941 12.5569 27.6504 6.51319 20.1951 6.51319C12.7398 6.51319 6.69605 12.5569 6.69605 20.0122Z" fill="#F9F9FA"/>
</g>
<defs>
<clipPath id="clip0_3690_18489">
<rect width="39.0244" height="39.0244" fill="white" transform="translate(0.682861 0.5)"/>
</clipPath>
</defs>
</svg>
