<svg width="40" height="40" viewBox="0 0 32 32" fill="none" xmlns="http://www.w3.org/2000/svg">
<g clip-path="url(#clip0_14626_4571)">
<path d="M16 0C24.8373 0 32 7.16407 32 16C32 24.8373 24.8373 32 16 32C7.16407 32 0 24.8366 0 16C0 7.16407 7.16407 0 16 0Z" fill="#161616"/>
<g clip-path="url(#clip1_14626_4571)">
<path d="M10.1728 19.6851C10.2805 19.5773 10.4285 19.5145 10.5856 19.5145H24.826C25.0862 19.5145 25.2163 19.8289 25.0324 20.013L22.2193 22.8292C22.1116 22.937 21.9635 22.9999 21.8065 22.9999H7.56609C7.30587 22.9999 7.17576 22.6855 7.35971 22.5013L10.1728 19.6851Z" fill="#F9F9FA"/>
<path d="M10.1727 9.17068C10.2848 9.06288 10.4329 9 10.5854 9H24.8259C25.0861 9 25.2162 9.3144 25.0322 9.49856L22.2191 12.3147C22.1115 12.4225 21.9634 12.4854 21.8064 12.4854H7.56597C7.30575 12.4854 7.17564 12.171 7.35959 11.9868L10.1727 9.17068Z" fill="#F9F9FA"/>
<path d="M22.2193 14.3944C22.1116 14.2866 21.9635 14.2238 21.8065 14.2238H7.56609C7.30587 14.2238 7.17576 14.5382 7.35971 14.7223L10.1728 17.5385C10.2805 17.6463 10.4285 17.7092 10.5856 17.7092H24.826C25.0862 17.7092 25.2163 17.3948 25.0324 17.2106L22.2193 14.3944Z" fill="#F9F9FA"/>
</g>
</g>
<defs>
<clipPath id="clip0_14626_4571">
<rect width="32" height="32" fill="white"/>
</clipPath>
<clipPath id="clip1_14626_4571">
<rect width="17.8431" height="14" fill="white" transform="translate(7.27454 9)"/>
</clipPath>
</defs>
</svg>