<svg width="40" height="40" viewBox="0 0 40 40" fill="none" xmlns="http://www.w3.org/2000/svg">
<g clip-path="url(#clip0_14705_4611)">
<path d="M20 0C31.0466 0 40 8.95509 40 20C40 31.0466 31.0466 40 20 40C8.95509 40 0 31.0457 0 20C0 8.95509 8.95509 0 20 0Z" fill="#161616"/>
<g clip-path="url(#clip1_14705_4611)">
<path d="M12.716 24.6064C12.8506 24.4717 13.0356 24.3931 13.2319 24.3931H31.0324C31.3577 24.3931 31.5203 24.7861 31.2904 25.0163L27.7741 28.5365C27.6395 28.6712 27.4544 28.7498 27.2581 28.7498H9.45758C9.13231 28.7498 8.96967 28.3568 9.19961 28.1266L12.716 24.6064Z" fill="#F9F9FA"/>
<path d="M12.7158 11.4633C12.856 11.3286 13.0411 11.25 13.2318 11.25H31.0323C31.3576 11.25 31.5202 11.643 31.2903 11.8732L27.7739 15.3934C27.6393 15.5282 27.4543 15.6068 27.258 15.6068H9.45746C9.13218 15.6068 8.96955 15.2137 9.19948 14.9836L12.7158 11.4633Z" fill="#F9F9FA"/>
<path d="M27.7741 17.993C27.6395 17.8583 27.4544 17.7797 27.2581 17.7797H9.45758C9.13231 17.7797 8.96967 18.1727 9.19961 18.4029L12.716 21.9231C12.8506 22.0578 13.0356 22.1364 13.2319 22.1364H31.0324C31.3577 22.1364 31.5203 21.7434 31.2904 21.5132L27.7741 17.993Z" fill="#F9F9FA"/>
</g>
</g>
<defs>
<clipPath id="clip0_14705_4611">
<rect width="40" height="40" fill="white"/>
</clipPath>
<clipPath id="clip1_14705_4611">
<rect width="22.3039" height="17.5" fill="white" transform="translate(9.09314 11.25)"/>
</clipPath>
</defs>
</svg>