<svg xmlns="http://www.w3.org/2000/svg" width="24" height="24" viewBox="0 0 24 24" fill="none">
    <g clip-path="url(#clip0_2241_24546)">
        <path d="M12 0C18.6279 0 24 5.37305 24 12C24 18.6279 18.6279 24 12 24C5.37305 24 0 18.6274 0 12C0 5.37305 5.37305 0 12 0Z" fill="#222222"/>
        <path d="M8.48388 5.61753C8.92457 5.73771 9.36526 5.81784 9.80595 5.93803C10.2466 6.05822 10.6873 6.13834 11.128 6.25853C11.2482 6.29859 11.2883 6.25853 11.3283 6.13834C11.4886 5.45728 11.6488 4.81628 11.8091 4.13521C11.8491 4.01502 11.8892 3.97496 12.0094 4.01502C12.41 4.13521 12.7706 4.21534 13.1712 4.29546C13.2914 4.33552 13.2914 4.37559 13.2513 4.45571C13.0911 5.09671 12.9308 5.77778 12.7706 6.41878C12.7706 6.45884 12.7706 6.4989 12.7305 6.57903C13.051 6.65915 13.4116 6.73928 13.7321 6.81941C13.7721 6.81941 13.8122 6.73928 13.8523 6.69922C13.9725 6.1784 14.0926 5.69765 14.2529 5.17684C14.293 5.01659 14.333 4.85634 14.3731 4.69609C14.3731 4.61596 14.4131 4.5759 14.4933 4.61596C14.8939 4.73615 15.2945 4.81628 15.7352 4.93646C15.7753 4.93646 15.7753 4.97653 15.8153 4.97653C15.6951 5.49734 15.575 5.97809 15.4548 6.45884C15.4147 6.65916 15.3746 6.85947 15.2945 7.05978C15.2545 7.17997 15.2945 7.22003 15.4147 7.26009C15.8554 7.46041 16.2961 7.66072 16.7368 7.86103C17.1374 8.10141 17.498 8.42191 17.7784 8.82254C18.139 9.42347 18.179 10.0645 18.0188 10.7055C17.8986 11.1462 17.7383 11.5468 17.4178 11.8673C17.1775 12.1077 16.857 12.2679 16.5365 12.3881C16.4964 12.3881 16.4563 12.4282 16.3762 12.4282C16.5365 12.5484 16.6967 12.6285 16.857 12.7487C17.3377 13.1092 17.6582 13.5499 17.8185 14.1108C17.8986 14.5515 17.8585 15.0322 17.7383 15.4729C17.5781 16.0338 17.3778 16.5146 17.0172 16.9552C16.5765 17.4761 16.0156 17.7565 15.3746 17.8366C14.5333 17.9568 13.7321 17.8767 12.9308 17.7565C12.8106 17.7164 12.7305 17.7565 12.6905 17.8767C12.5302 18.5177 12.37 19.1987 12.2097 19.8398C12.1696 20 12.1696 20.0401 11.9693 19.9599C11.6088 19.8798 11.2081 19.7596 10.8476 19.6795C10.7274 19.6394 10.7274 19.5994 10.7674 19.5192C10.9277 18.8382 11.088 18.1571 11.2883 17.5161C11.2883 17.436 11.3283 17.3959 11.2482 17.3559C10.9277 17.2757 10.6072 17.1956 10.2466 17.1155C10.1665 17.4761 10.0463 17.8366 9.9662 18.1972C9.88607 18.5577 9.76588 18.9183 9.68576 19.2789C9.6457 19.359 9.6457 19.3991 9.52551 19.359C9.12488 19.2388 8.72426 19.1587 8.32363 19.0786C8.20344 19.0385 8.20344 18.9984 8.24351 18.9183C8.40376 18.2372 8.56401 17.5562 8.76432 16.9152C8.76432 16.8751 8.80438 16.8351 8.80438 16.7549C7.88294 16.5146 6.9615 16.2742 6 16.0338C6.08013 15.8736 6.12019 15.7534 6.20031 15.5931C6.36056 15.2326 6.52081 14.872 6.641 14.5515C6.68106 14.4313 6.72113 14.4313 6.84131 14.4313C7.12175 14.5114 7.44225 14.5915 7.72269 14.6316C8.04319 14.7117 8.28357 14.5515 8.32363 14.271C8.84444 12.2279 9.36526 10.1847 9.84601 8.10141C9.92613 7.78091 9.72582 7.42034 9.36526 7.30016C9.00469 7.17997 8.64413 7.09984 8.32363 7.01972C8.24351 7.01972 8.20344 6.97966 8.24351 6.89953C8.36369 6.45884 8.39711 6.06725 8.5173 5.62657C8.5173 5.62657 8.5173 5.62657 8.48388 5.61753ZM10.5271 15.513C10.5671 15.513 10.6072 15.5531 10.6072 15.5531C11.2482 15.7133 11.9293 15.9136 12.6103 15.9537C13.0911 15.9937 13.5318 15.9937 13.9725 15.8335C14.7336 15.5931 15.0541 14.5915 14.6135 13.9505C14.4131 13.63 14.0926 13.4297 13.7721 13.2294C13.051 12.8288 12.2097 12.6685 11.4085 12.5083C11.2883 12.4682 11.2883 12.5083 11.2482 12.6285C11.1681 13.0291 11.0479 13.3897 10.9678 13.7903C10.8075 14.3512 10.6873 14.9121 10.5271 15.513ZM13.8923 11.4266C13.9725 11.4266 14.1728 11.3865 14.333 11.3465C15.0942 11.1862 15.4948 10.3049 15.0942 9.62379C14.8939 9.26322 14.5333 9.02285 14.1728 8.8626C13.6119 8.62222 13.051 8.50204 12.4501 8.34178C12.3299 8.30172 12.2898 8.34178 12.2498 8.46197C12.0495 9.30329 11.8491 10.1045 11.6088 10.9459C11.5687 11.026 11.6088 11.066 11.6889 11.1061C11.8491 11.1462 11.9693 11.1862 12.1296 11.2263C12.7305 11.3064 13.2513 11.4266 13.8923 11.4266Z" fill="#D6D9DB"/>
    </g>
    <defs>
        <clipPath id="clip0_2241_24546">
            <rect width="24" height="24" fill="white"/>
        </clipPath>
    </defs>
</svg>