<svg width="32" height="32" viewBox="0 0 32 32" fill="none" xmlns="http://www.w3.org/2000/svg">
<g clip-path="url(#clip0_3690_18448)">
<path d="M16 0C24.8373 0 32 7.16407 32 16C32 24.8373 24.8373 32 16 32C7.16407 32 0 24.8366 0 16C0 7.16407 7.16407 0 16 0Z" fill="#161616"/>
<path d="M11.3118 7.49002C11.8994 7.65027 12.487 7.7571 13.0746 7.91735C13.6622 8.0776 14.2498 8.18443 14.8373 8.34469C14.9976 8.3981 15.051 8.34468 15.1044 8.18443C15.3181 7.27635 15.5318 6.42168 15.7454 5.51359C15.7989 5.35334 15.8523 5.29993 16.0125 5.35334C16.5467 5.51359 17.0274 5.62043 17.5616 5.72726C17.7219 5.78068 17.7219 5.8341 17.6684 5.94093C17.4548 6.7956 17.2411 7.70368 17.0274 8.55835C17.0274 8.61177 17.0274 8.66519 16.974 8.77202C17.4014 8.87885 17.8821 8.98569 18.3094 9.09252C18.3629 9.09252 18.4163 8.98569 18.4697 8.93227C18.6299 8.23785 18.7902 7.59685 19.0039 6.90243C19.0573 6.68876 19.1107 6.4751 19.1641 6.26143C19.1641 6.1546 19.2175 6.10118 19.3244 6.1546C19.8585 6.31485 20.3927 6.42168 20.9803 6.58193C21.0337 6.58193 21.0337 6.63535 21.0871 6.63535C20.9269 7.32977 20.7666 7.97077 20.6064 8.61177C20.5529 8.87885 20.4995 9.14594 20.3927 9.41302C20.3393 9.57327 20.3927 9.62669 20.5529 9.68011C21.1405 9.94719 21.7281 10.2143 22.3157 10.4814C22.8499 10.8019 23.3306 11.2292 23.7045 11.7634C24.1853 12.5646 24.2387 13.4193 24.025 14.274C23.8648 14.8615 23.6511 15.3957 23.2238 15.823C22.9033 16.1435 22.476 16.3572 22.0486 16.5175C21.9952 16.5175 21.9418 16.5709 21.8349 16.5709C22.0486 16.7311 22.2623 16.838 22.476 16.9982C23.117 17.479 23.5443 18.0665 23.758 18.8144C23.8648 19.402 23.8114 20.043 23.6511 20.6305C23.4375 21.3784 23.1704 22.0194 22.6896 22.607C22.102 23.3014 21.3542 23.6753 20.4995 23.7821C19.3778 23.9424 18.3094 23.8356 17.2411 23.6753C17.0809 23.6219 16.974 23.6753 16.9206 23.8356C16.7069 24.6902 16.4933 25.5983 16.2796 26.453C16.2262 26.6666 16.2262 26.7201 15.9591 26.6132C15.4783 26.5064 14.9442 26.3461 14.4634 26.2393C14.3032 26.1859 14.3032 26.1325 14.3566 26.0256C14.5703 25.1176 14.7839 24.2095 15.051 23.3548C15.051 23.248 15.1044 23.1946 14.9976 23.1411C14.5703 23.0343 14.1429 22.9275 13.6622 22.8206C13.5553 23.3014 13.3951 23.7821 13.2883 24.2629C13.1814 24.7436 13.0212 25.2244 12.9143 25.7051C12.8609 25.812 12.8609 25.8654 12.7007 25.812C12.1665 25.6517 11.6323 25.5449 11.0982 25.4381C10.9379 25.3846 10.9379 25.3312 10.9913 25.2244C11.205 24.3163 11.4187 23.4082 11.6858 22.5536C11.6858 22.5001 11.7392 22.4467 11.7392 22.3399C10.5106 22.0194 9.282 21.6989 8 21.3784C8.10683 21.1647 8.16025 21.0045 8.26708 20.7908C8.48075 20.31 8.69442 19.8293 8.85467 19.402C8.90809 19.2417 8.9615 19.2417 9.12175 19.2417C9.49567 19.3485 9.923 19.4554 10.2969 19.5088C10.7243 19.6156 11.0448 19.402 11.0982 19.028C11.7926 16.3038 12.487 13.5795 13.128 10.8019C13.2348 10.3745 12.9678 9.89377 12.487 9.73352C12.0063 9.57327 11.5255 9.46644 11.0982 9.3596C10.9913 9.3596 10.9379 9.30619 10.9913 9.19935C11.1516 8.61177 11.1962 8.08965 11.3564 7.50207C11.3564 7.50207 11.3564 7.50207 11.3118 7.49002ZM14.0361 20.684C14.0895 20.684 14.1429 20.7374 14.1429 20.7374C14.9976 20.951 15.9057 21.2181 16.8138 21.2716C17.4548 21.325 18.0424 21.325 18.6299 21.1113C19.6449 20.7908 20.0722 19.4554 19.4846 18.6007C19.2175 18.1734 18.7902 17.9063 18.3629 17.6392C17.4014 17.105 16.2796 16.8914 15.2113 16.6777C15.051 16.6243 15.051 16.6777 14.9976 16.838C14.8908 17.3721 14.7305 17.8529 14.6237 18.387C14.41 19.1349 14.2498 19.8827 14.0361 20.684ZM18.5231 15.2355C18.6299 15.2355 18.897 15.182 19.1107 15.1286C20.1256 14.915 20.6598 13.7398 20.1256 12.8317C19.8585 12.3509 19.3778 12.0304 18.897 11.8168C18.1492 11.4963 17.4014 11.336 16.6001 11.1224C16.4399 11.0689 16.3864 11.1224 16.333 11.2826C16.0659 12.4044 15.7989 13.4727 15.4783 14.5945C15.4249 14.7013 15.4784 14.7547 15.5852 14.8081C15.7989 14.8615 15.9591 14.915 16.1728 14.9684C16.974 15.0752 17.6684 15.2355 18.5231 15.2355Z" fill="#D6D9DB"/>
</g>
<defs>
<clipPath id="clip0_3690_18448">
<rect width="32" height="32" fill="white"/>
</clipPath>
</defs>
</svg>
