<svg width="32" height="32" viewBox="0 0 32 32" fill="none" xmlns="http://www.w3.org/2000/svg">
<g clip-path="url(#clip0_3690_18401)">
<mask id="mask0_3690_18401" style="mask-type:luminance" maskUnits="userSpaceOnUse" x="0" y="0" width="32" height="32">
<path d="M0 0H32V32H0V0Z" fill="white"/>
</mask>
<g mask="url(#mask0_3690_18401)">
<path d="M16 0C24.8374 0 32 7.16406 32 16C32 24.8374 24.8374 32 16 32C7.16406 32 0 24.8366 0 16C0 7.16406 7.16406 0 16 0Z" fill="#161616"/>
<path fill-rule="evenodd" clip-rule="evenodd" d="M8.37995 24.82V24.8799L8.37707 24.882V24.892H15.3172C16.1028 24.9028 16.8854 24.8403 17.6572 24.702C18.4702 24.5428 19.2622 24.2923 20.0175 23.9524C20.345 23.8008 20.6592 23.6175 20.9762 23.4325C21.0564 23.3857 21.1368 23.3388 21.2178 23.2921C21.5908 23.0265 21.9478 22.7385 22.2876 22.4325C23.218 21.5916 23.938 20.5425 24.388 19.3725C24.4182 19.2415 24.5464 19.1572 24.678 19.1824H26.568C26.7186 19.1824 26.7683 19.132 26.7683 18.9621V17.7517C26.7783 17.6359 26.7783 17.5184 26.7683 17.4025C26.7683 17.3723 26.776 17.342 26.7838 17.3119C26.7994 17.2517 26.8147 17.1917 26.7683 17.1319H25.1892C24.9984 17.1319 24.9984 17.1116 24.9984 16.9417C25.0532 16.3327 25.0532 15.7213 24.9984 15.1121C24.9884 14.9321 25.0287 14.9321 25.1684 14.9321H26.5486C26.7092 14.9321 26.769 14.8919 26.769 14.732V13.0919C26.764 12.9832 26.7616 12.9281 26.7328 12.9002C26.703 12.8715 26.6456 12.8715 26.5292 12.8715H24.7392C24.5996 12.8953 24.4656 12.801 24.4404 12.6613C24.2352 12.1249 23.974 11.6115 23.6592 11.1313C23.3424 10.6575 22.9854 10.2125 22.5894 9.80137C22.063 9.27577 21.472 8.81929 20.8296 8.44129C19.8612 7.879 18.802 7.48514 17.6998 7.28138C17.1648 7.18274 16.624 7.12298 16.0798 7.10138H8.58019C8.37995 7.10138 8.37995 7.1417 8.37995 7.30154V12.6915C8.37995 12.8816 8.33963 12.8816 8.18987 12.8816H6.03997C5.88013 12.8816 5.88013 12.9111 5.88013 13.0213V14.7809C5.88013 14.9408 5.92981 14.9408 6.05005 14.9408H8.22011C8.37995 14.9408 8.37995 14.9704 8.37995 15.0905V16.9705C8.37995 17.1404 8.32955 17.1404 8.19995 17.1404H5.88013V19.0405C5.88013 19.2004 5.92981 19.2004 6.05005 19.2004H8.22011C8.37995 19.2004 8.37995 19.2199 8.37995 19.3501V21.7003V22.4901V24.82ZM22.1904 12.7103C22.2078 12.7549 22.2078 12.8046 22.1904 12.8499H22.2388C22.2186 12.9097 22.1184 12.9299 22.1184 12.9299H10.5789C10.3888 12.9299 10.3888 12.8895 10.3888 12.7398V9.19009C10.3888 9.05977 10.409 9.00001 10.5588 9.00001H15.9286C16.5002 8.99497 17.0704 9.05473 17.6284 9.18001C18.7344 9.44209 19.7634 9.96337 20.6287 10.7C20.8015 10.8289 20.9556 10.9808 21.0888 11.15C21.3711 11.4301 21.6188 11.7419 21.829 12.0803C21.9688 12.2783 22.089 12.4892 22.1904 12.7103ZM22.6692 17.1296H16.5894H10.6292C10.5076 17.1296 10.4477 17.1296 10.4181 17.0997C10.3895 17.0705 10.3895 17.0132 10.3895 16.9V15.1201C10.3895 14.9797 10.4298 14.93 10.5796 14.93H22.6792C22.8096 14.93 22.8694 14.9797 22.8694 15.1C22.919 15.7192 22.919 16.3412 22.8694 16.9597C22.8599 17.1296 22.7988 17.1296 22.6692 17.1296ZM22.1904 19.2097C22.0204 19.1911 21.8492 19.1911 21.6792 19.2097H10.5896C10.4399 19.2097 10.3895 19.2097 10.3895 19.4099V22.8804C10.3895 23.0401 10.3895 23.0805 10.5896 23.0805H15.7095C15.9543 23.0992 16.1992 23.082 16.439 23.0308C17.182 22.9776 17.9128 22.8163 18.6098 22.5505C18.8632 22.4628 19.108 22.3483 19.3392 22.2108H19.409C20.6092 21.5865 21.584 20.6059 22.199 19.402C22.199 19.402 22.2688 19.2508 22.1904 19.2112V19.2097Z" fill="#F9F9FA"/>
</g>
</g>
<defs>
<clipPath id="clip0_3690_18401">
<rect width="32" height="32" fill="white"/>
</clipPath>
</defs>
</svg>
