<svg width="32" height="32" viewBox="0 0 32 32" fill="none" xmlns="http://www.w3.org/2000/svg">
<g clip-path="url(#clip0_3690_18439)">
<path d="M16 0C24.8373 0 32 7.16407 32 16C32 24.8373 24.8373 32 16 32C7.16407 32 0 24.8366 0 16C0 7.16407 7.16407 0 16 0Z" fill="#161616"/>
<path d="M15.9978 4L15.8405 4.53443V20.041L15.9978 20.198L23.1956 15.9433L15.9978 4Z" fill="#474747"/>
<path d="M15.9981 4L8.80005 15.9433L15.9981 20.198V12.6715V4Z" fill="#F9F9FA"/>
<path d="M15.9979 21.5609L15.9092 21.669V27.1927L15.9979 27.4516L23.2001 17.3084L15.9979 21.5609Z" fill="#474747"/>
<path d="M15.9978 27.4516V21.5609L8.7998 17.3084L15.9978 27.4516Z" fill="#F9F9FA"/>
<path d="M15.9976 20.198L23.1954 15.9433L15.9976 12.6715V20.198Z" fill="#363636"/>
<path d="M8.7998 15.9433L15.9978 20.198V12.6715L8.7998 15.9433Z" fill="#474747"/>
</g>
<defs>
<clipPath id="clip0_3690_18439">
<rect width="32" height="32" fill="white"/>
</clipPath>
</defs>
</svg>
