<svg width="32" height="32" viewBox="0 0 32 32" fill="none" xmlns="http://www.w3.org/2000/svg">
<g clip-path="url(#clip0_6611_3059)">
<path d="M16 32C24.8366 32 32 24.8366 32 16C32 7.16344 24.8366 0 16 0C7.16344 0 0 7.16344 0 16C0 24.8366 7.16344 32 16 32Z" fill="#161616"/>
<path d="M20.5259 20.2072L24.9534 17.5271C25.1876 17.3852 25.3333 17.121 25.3333 16.8372V11.4763C25.3333 11.1929 25.1876 10.9282 24.9534 10.7863L20.5259 8.10628C20.2917 7.96437 20.0004 7.96478 19.7662 8.10628L15.3387 10.7863C15.1045 10.9282 14.9589 11.1925 14.9589 11.4763V21.0557L11.8542 22.9346L8.74961 21.0557V17.2966L11.8542 15.4177L13.9023 16.657V14.1355L12.2341 13.1259C12.119 13.0564 11.9876 13.0198 11.8542 13.0198C11.7209 13.0198 11.5895 13.0564 11.4744 13.1259L7.04647 15.8063C6.81229 15.9483 6.66663 16.2125 6.66663 16.4963V21.8568C6.66663 22.1402 6.81229 22.4049 7.04647 22.5468L11.474 25.2272C11.7082 25.3687 11.9991 25.3687 12.2337 25.2272L16.6612 22.5473C16.8954 22.4053 17.0411 22.1406 17.0411 21.8572V12.2778L17.097 12.2441L20.1457 10.3989L23.2503 12.2782V16.0369L20.1457 17.9162L18.1008 16.6786V19.2001L19.7658 20.2084C20 20.3499 20.2913 20.3499 20.5255 20.2084L20.5259 20.2072Z" fill="#F9F9FA"/>
</g>
<defs>
<clipPath id="clip0_6611_3059">
<rect width="32" height="32" fill="white"/>
</clipPath>
</defs>
</svg>
