<svg width="40" height="40" viewBox="0 0 40 40" fill="none" xmlns="http://www.w3.org/2000/svg">
<g clip-path="url(#clip0_1968_1297)">
<path d="M20 0C31.0467 0 40 8.95508 40 20C40 31.0467 31.0467 40 20 40C8.95508 40 0 31.0458 0 20C0 8.95508 8.95508 0 20 0Z" fill="#272437"/>
<path d="M8 10.5275C8.49837 11.8617 9.4441 12.8722 10.4114 13.5883" stroke="#E1DDF7" stroke-width="1.77331" stroke-linecap="round" stroke-linejoin="round"/>
<path d="M19.4859 14.8853H15.8482" stroke="#E1DDF7" stroke-width="1.77331" stroke-linecap="round" stroke-linejoin="round"/>
<path d="M25.5375 17.8324C25.4074 17.8324 25.2826 17.7807 25.1906 17.6887C25.0986 17.5967 25.047 17.4719 25.047 17.3418C25.047 17.2117 25.0986 17.087 25.1906 16.995C25.2826 16.903 25.4074 16.8513 25.5375 16.8513" stroke="#E1DDF7" stroke-width="1.77331" stroke-linecap="round" stroke-linejoin="round"/>
<path d="M25.5376 17.8324C25.6677 17.8324 25.7925 17.7807 25.8845 17.6887C25.9765 17.5967 26.0282 17.4719 26.0282 17.3418C26.0282 17.2117 25.9765 17.087 25.8845 16.995C25.7925 16.903 25.6677 16.8513 25.5376 16.8513" stroke="#E1DDF7" stroke-width="1.77331" stroke-linecap="round" stroke-linejoin="round"/>
<path d="M27.0482 7.77268V11.8401C30.115 13.1155 30.6663 15.2954 30.6663 18.1443L32.3831 19.5551V23.909C31.3707 26.0849 29.5008 27.219 27.0482 28.0882V30.019C27.0482 30.2791 26.9448 30.5287 26.7609 30.7127C26.5769 30.8966 26.3273 31 26.0671 31H22.6335C22.3733 31 22.1237 30.8966 21.9398 30.7127C21.7558 30.5287 21.6524 30.2791 21.6524 30.019V28.0882H15.4914V29.8659C15.4914 30.1261 15.3881 30.3756 15.2041 30.5596C15.0201 30.7436 14.7706 30.847 14.5104 30.847H11.0453C10.7851 30.847 10.5356 30.7436 10.3516 30.5596C10.1676 30.3756 10.0643 30.1261 10.0643 29.8659V26.393C10.0643 26.3008 9.88376 25.7985 9.65027 25.0215C8.96746 22.7494 7.8314 18.9115 9.46387 15.2973C10.8314 12.2698 14.1395 9.95846 21.2855 10.3587C22.3097 7.65103 25.0253 6.94271 26.4105 7.00353C26.8049 7.02316 27.0482 7.37633 27.0482 7.77268Z" stroke="#E1DDF7" stroke-width="1.77331" stroke-linecap="round" stroke-linejoin="round"/>
</g>
<defs>
<clipPath id="clip0_1968_1297">
<rect width="40" height="40" fill="white"/>
</clipPath>
</defs>
</svg>
