<svg width="32" height="32" viewBox="0 0 32 32" fill="none" xmlns="http://www.w3.org/2000/svg">
<g clip-path="url(#clip0_6611_3062)">
<path d="M16 0C24.8373 0 32 7.16407 32 16C32 24.8373 24.8373 32 16 32C7.16407 32 0 24.8366 0 16C0 7.16407 7.16407 0 16 0Z" fill="#161616"/>
<circle cx="16" cy="16" r="13.5" stroke="#2B2B2B"/>
<path d="M16.0979 6L15.9646 6.45277V19.59L16.0979 19.723L22.1959 16.1184L16.0979 6Z" fill="#474747"/>
<path d="M16.0982 6L10 16.1184L16.0982 19.723V13.3465V6Z" fill="#8D8D8D"/>
<path d="M16.098 20.8776L16.0228 20.9692V25.6489L16.098 25.8682L22.1997 17.2749L16.098 20.8776Z" fill="#474747"/>
<path d="M16.0979 25.8682V20.8776L9.99976 17.2749L16.0979 25.8682Z" fill="#8D8D8D"/>
<path d="M16.0978 19.7229L22.1958 16.1183L16.0978 13.3465V19.7229Z" fill="#363636"/>
<path d="M9.99976 16.1183L16.0979 19.7229V13.3465L9.99976 16.1183Z" fill="#474747"/>
</g>
<defs>
<clipPath id="clip0_6611_3062">
<rect width="32" height="32" fill="white"/>
</clipPath>
</defs>
</svg>
