<svg width="32" height="32" viewBox="0 0 32 32" fill="none" xmlns="http://www.w3.org/2000/svg">
<g clip-path="url(#clip0_3690_18451)">
<path d="M16 0C24.8373 0 32 7.16407 32 16C32 24.8373 24.8373 32 16 32C7.16407 32 0 24.8367 0 16C0 7.16407 7.16407 0 16 0Z" fill="#161616"/>
<path d="M12.5497 18.8416L11.0755 16.0023V10.1978L9.33337 7.33331H16.3439C20.515 7.33331 22.9524 9.44401 22.9524 13.0624C22.9524 15.5248 21.7965 17.2837 19.6356 18.1632L23.1283 25.7014H19.6105L16.4947 18.8416H12.5497ZM11.0755 10.1978V16.0023H16.3439C18.3792 16.0023 19.5853 14.9218 19.5853 13.0624C19.5853 11.2281 18.3792 10.1978 16.3439 10.1978H12.8386C11.4697 10.1978 12.4444 10.1978 11.0755 10.1978Z" fill="#F9F9FA"/>
</g>
<defs>
<clipPath id="clip0_3690_18451">
<rect width="32" height="32" fill="white"/>
</clipPath>
</defs>
</svg>
