<svg width="32" height="32" viewBox="0 0 32 32" fill="none" xmlns="http://www.w3.org/2000/svg">
<g clip-path="url(#clip0_6611_3092)">
<path d="M16 32C24.8366 32 32 24.8366 32 16C32 7.16344 24.8366 0 16 0C7.16344 0 0 7.16344 0 16C0 24.8366 7.16344 32 16 32Z" fill="#161616"/>
<g clip-path="url(#clip1_6611_3092)">
<path d="M9.46233 14.9L9.29029 15.1538C7.31179 18.2 7.7419 22.1769 10.4086 24.7153C11.8709 26.2384 13.9354 27 16 27C16 27 16 27 9.46233 14.9Z" fill="#F9F9FA"/>
<path opacity="0.6" d="M15.9999 18.5384L9.46228 14.8153C15.9999 26.9999 15.9999 26.9999 15.9999 26.9999C15.9999 24.3768 15.9999 21.3307 15.9999 18.5384Z" fill="#F9F9FA"/>
<path opacity="0.6" d="M22.5376 14.9L22.7097 15.1538C24.6882 18.2 24.2581 22.1769 21.5914 24.7153C20.043 26.2384 18.0645 27 16 27C16 27 16 27 22.5376 14.9Z" fill="#F9F9FA"/>
<path opacity="0.2" d="M16 18.5384L22.5376 14.8153C16 26.9999 16 26.9999 16 26.9999C16 24.3768 16 21.3307 16 18.5384Z" fill="#F9F9FA"/>
<path opacity="0.2" d="M16 10.3307V16.6769L21.6774 13.5461L16 10.3307Z" fill="#F9F9FA"/>
<path opacity="0.6" d="M15.9999 10.3307L10.3225 13.5461L15.9999 16.6769V10.3307Z" fill="#F9F9FA"/>
<path d="M15.9999 5L10.3225 13.5462L15.9999 10.3308V5Z" fill="#F9F9FA"/>
<path opacity="0.6" d="M16 10.3308L21.6774 13.5462L16 5V10.3308Z" fill="#F9F9FA"/>
</g>
</g>
<defs>
<clipPath id="clip0_6611_3092">
<rect width="32" height="32" fill="white"/>
</clipPath>
<clipPath id="clip1_6611_3092">
<rect width="16" height="22" fill="white" transform="translate(8 5)"/>
</clipPath>
</defs>
</svg>
