<svg width="32" height="32" viewBox="0 0 32 32" fill="none" xmlns="http://www.w3.org/2000/svg">
<g clip-path="url(#clip0_3690_18415)">
<path d="M15.5826 31.1652C24.218 31.1652 31.1652 24.218 31.1652 15.5826C31.1652 6.9472 24.218 0 15.5826 0C6.9472 0 0 6.9472 0 15.5826C0 24.218 6.9472 31.1652 15.5826 31.1652Z" fill="#161616"/>
<path d="M19.8677 18.0496C19.8677 15.7773 18.5043 14.9981 15.7772 14.6735C13.8295 14.4137 13.4398 13.8944 13.4398 12.9853C13.4398 12.0762 14.0892 11.492 15.3877 11.492C16.5564 11.492 17.2057 11.8815 17.5303 12.8554C17.5952 13.0502 17.79 13.18 17.9848 13.18H19.0236C19.2832 13.18 19.4781 12.9853 19.4781 12.7257V12.6606C19.2184 11.2322 18.0496 10.1285 16.5564 9.99872V8.4404C16.5564 8.18064 16.3616 7.98589 16.0371 7.9209H15.0631C14.8032 7.9209 14.6086 8.11568 14.5436 8.4404V9.93368C12.5957 10.1934 11.3622 11.492 11.3622 13.1152C11.3622 15.2578 12.6608 16.1018 15.3877 16.4265C17.2057 16.751 17.79 17.1407 17.79 18.1795C17.79 19.2184 16.881 19.9326 15.6474 19.9326C13.9592 19.9326 13.3749 19.2182 13.1801 18.2445C13.1152 17.9847 12.9205 17.8548 12.7257 17.8548H11.6218C11.3622 17.8548 11.1675 18.0496 11.1675 18.3094V18.3744C11.4271 19.9974 12.466 21.1662 14.6086 21.4909V23.0492C14.6086 23.3088 14.8032 23.5034 15.1279 23.5685H16.1018C16.3616 23.5685 16.5564 23.3737 16.6214 23.0492V21.4909C18.5692 21.1662 19.8677 19.8026 19.8677 18.0496Z" fill="#F9F9FA"/>
<path fill-rule="evenodd" clip-rule="evenodd" d="M6.49385 12.4011C4.61085 17.4007 7.20799 23.0494 12.2724 24.8672C12.4672 24.9971 12.6619 25.2569 12.6619 25.4515V26.3607C12.6619 26.4905 12.6619 26.5555 12.5969 26.6203C12.5321 26.88 12.2724 27.0099 12.0126 26.88C8.37667 25.7114 5.58476 22.9195 4.41606 19.2835C2.46823 13.1155 5.84453 6.55769 12.0126 4.60987C12.0776 4.54504 12.2074 4.54504 12.2724 4.54504C12.5321 4.60987 12.6619 4.80466 12.6619 5.06442V5.97335C12.6619 6.2981 12.5321 6.49288 12.2724 6.62268C9.61035 7.5966 7.46776 9.67419 6.49385 12.4011ZM18.5704 4.86945C18.6352 4.60968 18.895 4.47988 19.1547 4.60968C22.7256 5.77839 25.5826 8.57035 26.7512 12.2712C28.699 18.4392 25.3228 24.9971 19.1547 26.9448C19.0898 27.0097 18.9599 27.0097 18.895 27.0097C18.6352 26.9448 18.5053 26.7501 18.5053 26.4903V25.5814C18.5053 25.2566 18.6352 25.0618 18.895 24.932C21.5568 23.9582 23.6996 21.8805 24.6734 19.1535C26.5564 14.154 23.9593 8.50531 18.895 6.68748C18.7002 6.55752 18.5053 6.29791 18.5053 6.03816V5.12921C18.5053 4.99925 18.5053 4.93444 18.5704 4.86945Z" fill="#F9F9FA"/>
</g>
<defs>
<clipPath id="clip0_3690_18415">
<rect width="32" height="32" fill="white"/>
</clipPath>
</defs>
</svg>
