<svg width="32" height="32" viewBox="0 0 32 32" fill="none" xmlns="http://www.w3.org/2000/svg">
<g clip-path="url(#clip0_3690_18408)">
<path d="M16 32C24.8667 32 32 24.8667 32 16C32 7.13328 24.8667 0 16 0C7.13328 0 0 7.13328 0 16C0 24.8667 7.13328 32 16 32Z" fill="#161616"/>
<path d="M13.7073 15.8451V11.6645H8.03711V8H23.8819V11.7161H18.2117V15.8451H13.7073Z" fill="#F9F9FA"/>
<path fill-rule="evenodd" clip-rule="evenodd" d="M5.59998 16.3095C5.59998 14.9159 10.1573 13.7805 15.8276 13.7805C21.4977 13.7805 26.0551 14.9159 26.0551 16.3095C26.0551 17.703 21.4977 18.8385 15.8276 18.8385C10.1573 18.8385 5.59998 17.703 5.59998 16.3095ZM25.208 16.3094C24.8371 15.7933 21.7635 14.1933 15.8283 14.1933C9.89318 14.1933 6.81957 15.7417 6.44862 16.3094C6.81957 16.8256 9.89318 17.5997 15.8283 17.5997C21.8165 17.5997 24.8371 16.8256 25.208 16.3094Z" fill="#F9F9FA"/>
<path d="M18.212 17.1354V14.2451C17.4701 14.1935 16.6752 14.1418 15.8803 14.1418C15.1385 14.1418 14.4495 14.1418 13.7606 14.1935V17.0837C14.3965 17.0837 15.1385 17.1354 15.8803 17.1354C16.6752 17.187 17.4701 17.187 18.212 17.1354Z" fill="#F9F9FA"/>
<path d="M15.8281 18.8386C15.0862 18.8386 14.3973 18.8386 13.7084 18.787V26.4773H18.1597V18.7354C17.4179 18.787 16.6229 18.8386 15.8281 18.8386Z" fill="#F9F9FA"/>
</g>
<defs>
<clipPath id="clip0_3690_18408">
<rect width="32" height="32" fill="white"/>
</clipPath>
</defs>
</svg>
