<svg width="32" height="32" viewBox="0 0 32 32" fill="none" xmlns="http://www.w3.org/2000/svg">
<g clip-path="url(#clip0_6611_3104)">
<path d="M16 0C24.8373 0 32 7.16407 32 16C32 24.8373 24.8373 32 16 32C7.16407 32 0 24.8366 0 16C0 7.16407 7.16407 0 16 0Z" fill="#161616"/>
<circle cx="16" cy="16" r="13.5" stroke="#2B2B2B"/>
<path d="M9.27153 9.01206C9.88057 9.01477 10.4758 8.96589 11.0848 8.9686C11.6939 8.97131 12.2891 8.92242 12.8981 8.92514C13.0667 8.93526 13.1045 8.86984 13.1146 8.70122C13.086 7.76878 13.0712 6.88793 13.0425 5.95548C13.0526 5.78687 13.0904 5.72145 13.259 5.73157C13.8165 5.7481 14.3085 5.72687 14.8521 5.69181C15.0207 5.70193 15.0345 5.75353 15.0106 5.87055C15.0254 6.75139 15.0541 7.68384 15.0689 8.56469C15.0827 8.61628 15.0965 8.66788 15.0726 8.7849C15.513 8.77749 16.005 8.75626 16.4455 8.74885C16.497 8.73502 16.521 8.618 16.5588 8.55258C16.5338 7.84035 16.5227 7.17971 16.5494 6.45365C16.5457 6.23344 16.542 6.01323 16.5383 5.79302C16.5106 5.68983 16.5484 5.6244 16.6654 5.64835C17.2228 5.66489 17.7665 5.62983 18.3755 5.63254C18.4271 5.61871 18.4409 5.67031 18.4925 5.65649C18.5175 6.36872 18.5286 7.02935 18.5397 7.68999C18.5572 7.9618 18.5747 8.23361 18.5407 8.51924C18.5306 8.68786 18.596 8.72563 18.7646 8.73575C19.4013 8.84165 20.038 8.94756 20.6747 9.05346C21.2736 9.22479 21.8485 9.51314 22.348 9.93233C23.0197 10.5818 23.2925 11.3936 23.3073 12.2744C23.3046 12.8835 23.2365 13.4547 22.9343 13.9781C22.7077 14.3706 22.3502 14.6876 21.9789 14.953C21.9273 14.9668 21.8896 15.0323 21.7864 15.0599C22.0342 15.1594 22.2683 15.2073 22.5161 15.3068C23.2597 15.6052 23.8246 16.0622 24.2245 16.7293C24.4798 17.2692 24.5941 17.9022 24.5914 18.5112C24.5785 19.2889 24.4865 19.9771 24.1742 20.6691C23.7863 21.492 23.1608 22.0467 22.3629 22.3711C21.3208 22.8162 20.2612 22.9895 19.1878 23.1112C19.0192 23.1011 18.9298 23.1804 18.9197 23.349C18.9345 24.2298 18.9632 25.1623 18.978 26.0431C18.9817 26.2633 18.9955 26.3149 18.7099 26.2809C18.2179 26.3021 17.6604 26.2856 17.1684 26.3068C16.9998 26.2967 16.986 26.2451 17.0099 26.1281C16.9813 25.1956 16.9526 24.2632 16.9894 23.3685C16.9618 23.2653 16.9995 23.1999 16.8825 23.1759C16.4421 23.1833 16.0017 23.1908 15.5096 23.212C15.5309 23.704 15.5005 24.2099 15.5217 24.7019C15.543 25.1939 15.5126 25.6997 15.5339 26.1918C15.5099 26.3088 15.5237 26.3604 15.3551 26.3503C14.7977 26.3337 14.2541 26.3688 13.7104 26.4038C13.5418 26.3937 13.528 26.3421 13.5519 26.2251C13.5233 25.2927 13.4947 24.3602 13.5314 23.4655C13.5176 23.4139 13.5554 23.3485 13.5277 23.2453C12.2581 23.2537 10.9884 23.2621 9.66711 23.2844C9.71501 23.0503 9.72513 22.8817 9.77302 22.6477C9.85498 22.128 9.93694 21.6083 9.98112 21.1541C9.99125 20.9855 10.0428 20.9716 10.1976 20.9302C10.5865 20.9366 11.0269 20.9292 11.4019 20.884C11.8423 20.8766 12.0966 20.5872 12.0514 20.2122C12.0171 17.4011 11.9827 14.5899 11.883 11.741C11.8756 11.3006 11.4932 10.9053 10.9873 10.875C10.4815 10.8446 9.98945 10.8658 9.54903 10.8732C9.44584 10.9009 9.38042 10.8631 9.40436 10.7461C9.40707 10.1371 9.31498 9.62121 9.31769 9.01217C9.31769 9.01217 9.31769 9.01217 9.27153 9.01206ZM15.3178 21.0513C15.3694 21.0375 15.4348 21.0753 15.4348 21.0753C16.3157 21.0605 17.2619 21.0834 18.1529 20.9C18.7859 20.7857 19.3535 20.6336 19.8657 20.2751C20.7631 19.7029 20.8302 18.3024 20.0415 17.6289C19.6729 17.2853 19.191 17.1379 18.7091 16.9905C17.6421 16.7234 16.5033 16.8073 15.416 16.8774C15.2474 16.8673 15.2612 16.9189 15.2511 17.0875C15.2862 17.6311 15.2558 18.137 15.2909 18.6806C15.278 19.4583 15.3168 20.2221 15.3178 21.0513ZM18.2417 14.6272C18.3449 14.5995 18.5891 14.4788 18.7817 14.3719C19.7067 13.9028 19.9185 12.6294 19.1675 11.8906C18.7851 11.4953 18.2378 11.3102 17.7181 11.2282C16.9128 11.1122 16.149 11.1509 15.3197 11.1519C15.1511 11.1418 15.1133 11.2072 15.1032 11.3758C15.1356 12.5285 15.1541 13.6296 15.1348 14.796C15.1109 14.9131 15.1763 14.9508 15.2933 14.9748C15.5135 14.9711 15.6822 14.9812 15.9024 14.9775C16.704 14.8733 17.4162 14.8484 18.2417 14.6272Z" fill="#D6D9DB"/>
<line x1="22.5257" y1="5.84189" x2="23.5257" y2="2.84189" stroke="#161616"/>
<line x1="8.1481" y1="5.98859" x2="6.56696" y2="3.24997" stroke="#161616"/>
<line x1="7.56699" y1="28.4886" x2="9.14813" y2="25.75" stroke="#161616"/>
<line y1="-0.5" x2="3.16228" y2="-0.5" transform="matrix(-0.5 -0.866025 -0.866025 0.5 24.5811 28.7386)" stroke="#161616"/>
</g>
<defs>
<clipPath id="clip0_6611_3104">
<rect width="32" height="32" fill="white"/>
</clipPath>
</defs>
</svg>
